<svg width="68" height="68" viewBox="0 0 68 68" fill="none" xmlns="http://www.w3.org/2000/svg">
<path d="M37.0589 59.7715C37.2707 60.3342 37.839 60.6798 38.436 60.609C39.033 60.5382 39.5047 60.0694 39.5791 59.4729C40.375 53.0948 45.7124 38.5965 60.5606 32.1332C61.1282 31.8861 61.4446 31.2747 61.3186 30.6687C61.1926 30.0626 60.6587 29.628 60.0397 29.6276C52.6493 29.6234 46.5961 26.202 41.9867 21.8234C37.3672 17.4353 34.283 12.1607 32.8739 8.68664C32.6505 8.1359 32.0836 7.80519 31.4943 7.88174C30.9049 7.95829 30.4414 8.42281 30.3661 9.01234C28.089 26.842 15.4233 34.6379 9.55061 36.2963C8.93577 36.47 8.53655 37.0626 8.60664 37.6976C8.67674 38.3327 9.19562 38.824 9.83352 38.8593C16.3767 39.2218 31.0909 43.9195 37.0589 59.7715Z" fill="#B3B3B3"/>
<path d="M57.0819 29.7136C57.3657 29.5901 57.5239 29.2844 57.4609 28.9814C57.3979 28.6783 57.131 28.461 56.8215 28.4608C49.2151 28.4564 43.0089 24.9322 38.3187 20.4769C33.6235 16.0169 30.49 10.6611 29.0504 7.11195C28.9387 6.83658 28.6553 6.67122 28.3606 6.7095C28.0659 6.74777 27.8342 6.98003 27.7965 7.2748C25.4798 25.4153 12.5819 33.3904 6.51038 35.1049C6.20296 35.1918 6.00335 35.4881 6.0384 35.8056C6.07345 36.1231 6.33289 36.3688 6.65184 36.3864C13.3593 36.758 28.3642 41.549 34.4527 57.7209C34.5586 58.0023 34.8427 58.1751 35.1412 58.1397C35.4397 58.1043 35.6756 57.8699 35.7128 57.5716C36.5265 51.0507 41.9529 36.2992 57.0819 29.7136Z" fill="#FC75FF" stroke="black" stroke-width="1.30707" stroke-linejoin="round"/>
<path d="M42.7395 31.3328C36.245 35.3042 33.7968 42.2904 33.1132 45.5319C30.946 41.3855 25.3865 34.7888 20.4542 34.1221C22.4193 33.4641 27.4186 27.4432 29.7656 20.0103C34.0164 27.5125 40.052 30.6087 42.7395 31.3328Z" fill="white" stroke="black" stroke-width="1.30707" stroke-linecap="round" stroke-linejoin="round"/>
</svg>
