<svg width="606" height="690" viewBox="0 0 606 690" fill="none" xmlns="http://www.w3.org/2000/svg">
<g filter="url(#filter0_d_881_49)">
<rect x="72" y="149.122" width="512" height="512" fill="white"/>
<path d="M73.2322 136.122C73.2322 193.175 73.8402 216.103 73.8402 276.778M73.8402 276.778C73.8402 337.453 73.7462 448.039 73.2322 522.364C72.7183 596.69 72.3196 669.035 72.3196 669.035C72.3196 679.533 71.1954 667.145 71.2774 661.559C71.3799 654.576 72.3634 455.918 72.3634 438.576C72.3634 421.233 73.2322 332.951 73.8402 276.778Z" stroke="black" stroke-width="6" stroke-miterlimit="10" stroke-linecap="round" stroke-linejoin="round"/>
<path d="M498.793 660.853C582.238 660.853 570.583 660.853 598 660.853C597.528 661.126 593.277 662.171 591.523 662.382C589.33 662.647 531.801 662.502 519.523 662.502C477.493 662.502 287.627 661.515 275.201 661.515M498.793 660.853C498.793 660.853 297.533 662.502 265.434 662.502C233.335 662.502 240.927 662.547 173.163 662.502C122.5 662.469 61.92 662.502 57.8433 662.502C53.7667 662.502 55.2709 660.523 55.2709 660.523C83.7665 661.515 133.359 661.515 198.492 661.515C220.936 661.515 247.189 661.515 275.201 661.515M498.793 660.853C437.791 660.853 351.336 661.515 275.201 661.515" stroke="black" stroke-width="6" stroke-miterlimit="10" stroke-linecap="round" stroke-linejoin="round"/>
<path d="M583.447 406.794C583.447 473.188 584.8 514.962 584.8 558.373C584.8 601.785 584.109 675.329 584.109 675.329C584.109 675.329 582.517 678.428 582.517 672.372C582.517 666.316 583.558 623.262 583.447 561.388C583.335 499.515 583.34 434.679 583.447 406.794ZM583.447 406.794C583.446 375.496 582.724 311.563 582.767 275.986C582.814 236.093 582.766 178.643 582.767 140.122" stroke="black" stroke-width="6" stroke-miterlimit="10" stroke-linecap="round" stroke-linejoin="round"/>
<path d="M65.9997 149.984C95.2193 149.984 120.713 149.984 135.744 149.984M135.744 149.984C150.775 149.984 217.513 150.276 245.772 150.276M135.744 149.984C135.744 149.984 168.34 149.077 187.451 149.077C206.562 149.077 245.772 150.276 245.772 150.276M603 150.276C573.093 150.276 586.921 149.984 557.216 149.984C540.284 149.984 519.571 150.47 489.877 150.276M325.314 149.077C345.864 149.105 453.276 150.036 489.877 150.276M325.314 149.077C304.061 149.048 274.03 150.276 245.772 150.276M325.314 149.077C325.314 149.077 376.843 149.077 405.703 149.077M489.877 150.276C489.877 150.276 434.563 149.077 405.703 149.077M245.772 150.276C263.092 150.276 303.25 150.276 325.314 150.276C347.378 150.276 388.1 149.476 405.703 149.077" stroke="black" stroke-width="6" stroke-miterlimit="10" stroke-linecap="round" stroke-linejoin="round"/>
<rect x="120" y="205.122" width="416" height="400" fill="#494848" fill-opacity="0.19" stroke="black" stroke-width="4"/>
<g filter="url(#filter1_d_881_49)">
<rect x="53" y="236.122" width="90.0111" height="90.0111" rx="45.0056" fill="#FFDC58" stroke="black" stroke-width="2"/>
<path fill-rule="evenodd" clip-rule="evenodd" d="M96.7977 308.688C96.7972 308.679 96.7898 308.672 96.7808 308.671C95.6102 308.642 94.4122 308.528 93.2332 308.198C92.8024 308.077 92.3622 307.958 91.9482 307.758C91.2189 307.411 90.5413 306.915 90.0078 306.298C89.7386 305.986 89.508 305.672 89.3016 305.301C89.0852 304.93 88.959 304.499 88.9087 304.067C88.8577 303.682 88.8987 303.286 88.9932 302.912C89.0958 302.538 89.2786 302.196 89.4918 301.884C90.0644 301.098 91.0349 300.628 91.9407 300.714C92.2248 300.732 92.1844 300.879 92.0022 301.101C91.8077 301.299 91.5453 301.7 91.2537 301.92C90.9733 302.11 90.8111 302.397 90.6302 302.614C90.4629 302.851 90.3554 303.111 90.3075 303.375C90.236 303.635 90.2229 303.914 90.2783 304.204C90.3355 304.493 90.4791 304.781 90.6743 305.121C90.9118 305.499 91.2388 305.827 91.6162 306.095C92.0004 306.356 92.4293 306.559 92.8714 306.736C93.8487 307.123 94.9478 307.292 96.0582 307.363C96.7439 307.402 97.4402 307.412 98.1253 307.373C99.1654 307.312 100.214 307.182 101.2 306.877C101.972 306.661 102.687 306.332 103.369 305.956C103.52 305.875 103.662 305.784 103.81 305.696C104.359 305.371 104.565 305.312 104.815 305.401C104.871 305.421 104.935 305.432 104.98 305.458C105.121 305.527 105.017 305.844 104.637 306.204C104.071 306.73 103.409 307.197 102.689 307.571C102.329 307.755 101.958 307.934 101.573 308.071C101.183 308.193 100.787 308.296 100.387 308.377C99.2069 308.626 97.9997 308.706 96.815 308.704C96.8058 308.704 96.7982 308.697 96.7977 308.688V308.688Z" fill="#231F20"/>
<path fill-rule="evenodd" clip-rule="evenodd" d="M100.006 309.129C100.004 309.125 99.9993 309.122 99.9947 309.124C99.3601 309.291 98.7145 309.411 98.067 309.511C97.8276 309.543 97.5932 309.574 97.3533 309.606C96.5077 309.667 95.6573 309.649 94.8192 309.531C94.4462 309.482 94.0744 309.416 93.7076 309.338C93.2426 309.221 92.7539 309.101 92.3573 308.796C92.2311 308.706 92.3312 308.591 92.5102 308.52C92.6936 308.446 92.9299 308.428 93.1661 308.503C93.9917 308.813 94.8969 308.952 95.8251 309.034C96.3834 309.076 96.9672 309.014 97.5348 308.932C98.1627 308.861 98.7856 308.732 99.403 308.577C99.7835 308.487 100.157 308.362 100.531 308.246L101.374 307.947C101.65 307.835 101.923 307.716 102.193 307.594C102.606 307.39 102.99 307.149 103.389 306.934L103.647 306.783C103.977 306.605 104.107 306.591 104.235 306.645C104.265 306.658 104.299 306.667 104.321 306.683C104.395 306.735 104.303 306.878 104.088 307.065C103.456 307.629 102.693 308.092 101.879 308.455C101.284 308.74 100.656 308.959 100.017 309.135C100.012 309.137 100.007 309.134 100.006 309.129V309.129Z" fill="#231F20"/>
<path fill-rule="evenodd" clip-rule="evenodd" d="M101.237 313.125C101.242 313.129 101.249 313.129 101.254 313.125C101.452 312.953 101.623 312.711 101.779 312.458C101.84 312.366 101.862 312.25 101.92 312.153C102.115 311.801 102.287 311.42 102.458 311.025C102.54 310.854 102.6 310.67 102.667 310.488C102.758 310.256 102.816 309.992 103.077 309.803C103.152 309.744 103.238 309.861 103.316 310.003C103.391 310.153 103.481 310.277 103.458 310.397C103.345 310.787 103.295 311.291 103.015 311.729C102.863 311.995 102.801 312.311 102.666 312.602C102.522 312.923 102.329 313.232 102.114 313.525C101.958 313.694 101.822 313.874 101.633 314.014V314.014C101.498 314.125 101.353 314.222 101.199 314.304L101.196 314.306C101.047 314.402 100.879 314.45 100.716 314.512C100.591 314.57 100.466 314.609 100.336 314.645C100.209 314.678 100.074 314.739 99.9427 314.75C99.8848 314.757 99.8277 314.759 99.7686 314.754C99.5504 314.726 99.4863 314.66 99.4702 314.441C99.4658 314.394 99.459 314.349 99.459 314.307C99.4596 314.174 99.5585 314.006 99.6853 313.946C100.074 313.753 100.363 313.69 100.646 313.552C100.832 313.43 101.045 313.328 101.22 313.127C101.224 313.122 101.232 313.121 101.237 313.125V313.125Z" fill="#231F20"/>
<path fill-rule="evenodd" clip-rule="evenodd" d="M91.4617 302.168C91.4565 302.161 91.4469 302.158 91.4385 302.162C91.2856 302.225 91.1067 302.295 90.9518 302.415C90.8946 302.46 90.8604 302.525 90.8032 302.572C90.5943 302.735 90.3885 302.927 90.2368 303.153C90.1809 303.252 90.1461 303.37 90.1529 303.472C90.1492 303.619 90.2014 303.697 90.0932 303.809C90.0547 303.847 89.8147 303.96 89.5467 303.988C89.2881 304.032 88.9499 303.908 88.9232 303.737C88.8529 303.43 88.9132 303.161 89.0071 302.937C89.0979 302.708 89.2384 302.519 89.4075 302.36C89.6139 302.178 89.7053 301.927 89.8856 301.734C90.0857 301.527 90.3071 301.341 90.5595 301.188C90.7074 301.089 90.8828 301.022 91.0481 300.948V300.948C91.308 300.84 91.5923 300.792 91.8731 300.771C91.8764 300.771 91.8797 300.771 91.8831 300.771C91.9968 300.769 92.1131 300.741 92.2318 300.736C92.3481 300.742 92.4712 300.748 92.5931 300.768C92.649 300.772 92.69 300.802 92.7348 300.83C92.8902 300.953 92.894 301.061 92.7827 301.283C92.7572 301.334 92.7336 301.384 92.705 301.431C92.6092 301.587 92.4656 301.697 92.3543 301.757C92.0087 301.952 91.9906 302.01 91.8445 302.044C91.7534 302.064 91.6224 302.104 91.4867 302.174C91.478 302.179 91.4673 302.176 91.4617 302.168V302.168Z" fill="#231F20"/>
<path fill-rule="evenodd" clip-rule="evenodd" d="M80.7842 291.714C80.7874 291.711 80.7874 291.705 80.7841 291.701C79.2968 289.976 77.9566 288.108 76.8849 286.083C76.6778 285.72 76.4982 285.342 76.3216 284.962C76.1345 284.587 75.966 284.205 75.8224 283.81C74.7257 281.069 74.2775 278.075 74.4963 275.149C74.5317 274.499 74.6399 273.853 74.7183 273.207C74.8575 272.571 74.9352 271.922 75.1186 271.303C75.4848 269.694 76.1102 268.093 77.0795 266.742C77.3841 266.322 77.4114 266.43 77.2635 266.846C77.1093 267.262 76.8507 268.015 76.5075 268.869C76.3558 269.249 76.2215 269.636 76.1015 270.027C75.9803 270.415 75.8982 270.824 75.7826 271.219C75.6694 271.615 75.5675 272.014 75.4997 272.42C75.4289 272.826 75.3219 273.225 75.279 273.635C75.0192 275.263 74.9999 276.924 75.1584 278.574C75.3468 280.555 75.9635 282.562 76.8239 284.407C77.7596 286.445 78.9582 288.369 80.3676 290.134C81.2237 291.228 82.1494 292.272 83.123 293.268C84.5908 294.785 86.1656 296.215 87.7708 297.57C89.0198 298.624 90.2905 299.599 91.547 300.624C91.8224 300.851 92.0996 301.064 92.3682 301.306C93.3735 302.188 93.6452 302.532 93.7447 302.838C93.7683 302.907 93.8081 302.989 93.8137 303.036C93.8298 303.198 93.381 302.887 92.6306 302.277C90.3894 300.482 87.9629 298.623 85.6564 296.584C83.9476 295.071 82.2903 293.469 80.7842 291.727C80.7809 291.724 80.7809 291.718 80.7842 291.714V291.714Z" fill="#231F20"/>
<path fill-rule="evenodd" clip-rule="evenodd" d="M77.808 265.562C77.8182 265.567 77.8302 265.564 77.8368 265.555C78.8129 264.254 79.9615 263.108 81.2143 262.103C82.5012 261.135 83.8789 260.3 85.3343 259.632C88.255 258.334 91.4431 257.627 94.6535 257.727C95.8248 257.763 96.9936 257.898 98.1238 258.123C98.6933 258.235 99.2609 258.371 99.8235 258.537C100.386 258.7 100.936 258.938 101.49 259.141C103.407 259.979 105.113 261.27 106.473 262.828C107.84 264.386 108.87 266.2 109.576 268.11C111.011 271.932 111.286 276.081 110.752 280.045C110.538 281.811 110.162 283.554 109.699 285.263C109.25 286.979 108.662 288.646 108.036 290.283C107.23 292.387 106.262 294.43 105.184 296.407C104.114 298.39 102.898 300.289 101.578 302.101C100.75 303.23 100.709 302.967 101.177 301.866C101.416 301.319 101.755 300.546 102.187 299.634C102.603 298.713 103.119 297.656 103.709 296.53C104.759 294.535 105.659 292.472 106.52 290.403C107.363 288.325 108.083 286.2 108.626 284.034C109.723 279.714 110.062 275.173 109.017 270.84C108.699 269.553 108.252 268.284 107.663 267.078C107.071 265.872 106.304 264.752 105.409 263.754C104.512 262.76 103.475 261.882 102.305 261.233C101.136 260.583 99.8944 260.085 98.5714 259.778C92.7834 258.33 86.3315 259.836 81.6955 263.642C80.2786 264.815 79.0471 266.217 78.1431 267.811C77.9404 268.22 77.7228 268.624 77.5295 269.038L77.0539 270.323C76.8164 271.219 76.569 272.115 76.4484 273.035L76.362 273.554L76.3184 274.079L76.2351 275.129L76.242 276.183L76.2476 276.71L76.2967 277.235C76.3806 278.641 76.7051 280.023 77.1043 281.374C77.5121 282.727 78.1008 284.019 78.7412 285.28C79.4114 286.526 80.1711 287.723 80.9973 288.87C83.5948 292.431 86.7928 295.39 90.0716 298.286C90.7965 298.925 91.5189 299.534 92.2407 300.198C94.9221 302.632 95.6507 303.701 95.7906 304.566C95.8211 304.764 95.854 305.012 95.8378 305.125C95.8217 305.222 95.7608 305.213 95.6563 305.125C95.5469 305.037 95.4331 304.866 95.2006 304.646C94.7735 304.2 94.0635 303.505 93.0806 302.642C90.135 300.114 86.9656 297.543 84.0666 294.568C81.1733 291.603 78.4652 288.232 76.6852 284.271C76.0219 282.806 75.5251 281.256 75.1807 279.669C74.8295 278.079 74.7399 276.435 74.7903 274.806C74.8506 273.172 75.1751 271.567 75.5985 270.001C76.0896 268.416 76.836 266.919 77.7787 265.571C77.7853 265.561 77.7975 265.558 77.808 265.562V265.562Z" fill="#231F20"/>
<path fill-rule="evenodd" clip-rule="evenodd" d="M93.9005 307.657C93.8996 307.666 93.906 307.675 93.9151 307.676C95.4951 307.963 97.1747 307.915 98.8215 307.647C99.4202 307.541 100.027 307.375 100.608 307.247C101.584 306.994 102.58 306.529 103.488 305.99C104.394 305.443 105.24 304.772 105.829 303.957C106.326 303.222 106.442 302.341 106.002 301.619C105.727 301.161 105.267 300.783 104.771 300.473C104.264 300.174 103.724 299.903 103.15 299.698C102.793 299.578 102.846 299.461 103.214 299.357C103.568 299.276 104.297 299.162 105.04 299.494C105.689 299.783 106.327 300.176 106.845 300.808C106.976 300.959 107.082 301.133 107.173 301.317C107.368 301.709 107.491 302.135 107.526 302.571V302.571C107.532 302.787 107.494 303.001 107.472 303.216C107.308 304.056 106.871 304.723 106.397 305.276C105.919 305.836 105.357 306.258 104.779 306.639C104.085 307.089 103.366 307.495 102.613 307.857C102.237 308.038 101.85 308.204 101.449 308.347C101.251 308.422 101.035 308.477 100.83 308.541L100.232 308.672C98.4858 309.06 96.6761 309.264 94.8663 309.111C93.7541 309.014 92.6475 308.78 91.5937 308.373C90.7979 308.055 90.0475 307.605 89.3873 307.034C88.7364 306.453 88.2042 305.704 87.9412 304.835C87.751 304.162 87.7224 303.405 87.9518 302.717C88.188 302.032 88.6301 301.442 89.1573 300.989C89.3898 300.789 89.6254 300.605 89.8896 300.45C90.377 300.163 90.7432 300.077 91.0006 300.045C91.2629 300.025 91.432 300.084 91.5837 300.209C91.6527 300.264 91.7348 300.314 91.7796 300.372C91.93 300.574 91.58 300.865 91.0037 301.229C90.1451 301.757 89.4233 302.489 89.2263 303.27C89.1069 303.659 89.1287 304.043 89.22 304.449C89.3307 304.855 89.5688 305.251 89.8598 305.62C90.7823 306.71 92.3105 307.366 93.8856 307.637C93.8949 307.639 93.9014 307.648 93.9005 307.657V307.657Z" fill="#231F20"/>
<path fill-rule="evenodd" clip-rule="evenodd" d="M92.2433 304.717C92.2405 304.725 92.2444 304.734 92.2522 304.737C93.1277 305.102 94.1006 305.34 95.0957 305.457C95.4612 305.502 95.8311 305.496 96.1998 305.51C97.5016 305.567 98.8327 305.471 100.108 305.146C100.672 305 101.226 304.801 101.734 304.54C102.388 304.198 102.956 303.756 103.461 303.266C103.622 303.113 103.741 303.2 103.763 303.47C103.799 303.744 103.686 304.221 103.314 304.559C101.995 305.708 100.363 306.243 98.7376 306.402C97.764 306.495 96.7599 306.644 95.7584 306.615C94.6611 306.582 93.5576 306.439 92.4951 306.097C91.843 305.887 91.2051 305.606 90.6163 305.227C90.1731 304.936 89.759 304.584 89.4183 304.16C89.2592 303.939 89.0994 303.719 88.9807 303.472C88.8445 303.251 88.745 302.898 88.7513 302.599C88.7581 302.112 88.944 301.68 89.1821 301.319C89.4239 300.957 89.7273 300.651 90.0773 300.403C90.229 300.29 90.3869 300.19 90.561 300.104C91.225 299.809 91.5284 299.923 91.6776 300.186C91.713 300.247 91.7547 300.305 91.7721 300.365C91.8187 300.567 91.6036 300.752 91.284 300.927C90.7966 301.184 90.3378 301.605 90.0885 302.04C89.9636 302.255 89.9089 302.465 89.9213 302.604C89.9232 302.676 89.9449 302.731 89.9729 302.789C90.0065 302.862 90.0997 303.011 90.1563 303.121C90.591 303.8 91.3523 304.342 92.2341 304.697C92.242 304.7 92.2461 304.709 92.2433 304.717V304.717Z" fill="#231F20"/>
<path fill-rule="evenodd" clip-rule="evenodd" d="M95.8179 310.405C95.8167 310.414 95.8227 310.423 95.8319 310.425C96.6475 310.614 97.5337 310.643 98.4176 310.563C98.7439 310.541 99.061 310.45 99.3855 310.396C100.534 310.209 101.668 309.852 102.754 309.376C103.23 309.155 103.686 308.883 104.099 308.574C104.644 308.184 105.078 307.701 105.526 307.252C105.677 307.117 105.812 307.2 105.876 307.458C105.906 307.586 105.931 307.772 105.893 307.966C105.849 308.146 105.762 308.344 105.624 308.522C104.589 309.676 103.301 310.503 101.874 310.938C101.019 311.183 100.168 311.54 99.2668 311.696C98.2826 311.874 97.2693 311.937 96.2578 311.836C95.6373 311.77 95.0125 311.622 94.4275 311.414C93.5403 311.088 92.7023 310.588 92.0072 309.937C91.4645 309.438 90.9653 308.878 90.6066 308.219C90.5332 308.072 90.4611 307.928 90.3995 307.775C90.2199 307.188 90.3224 306.964 90.5686 306.782C90.6252 306.741 90.6762 306.692 90.7303 306.665C90.9037 306.574 91.1673 306.748 91.3961 307.067C91.7324 307.543 92.0253 307.991 92.3591 308.402C92.6942 308.812 93.089 309.165 93.5366 309.464C94.1898 309.902 94.9993 310.223 95.8032 310.384C95.8127 310.386 95.8191 310.395 95.8179 310.405V310.405Z" fill="#231F20"/>
<path fill-rule="evenodd" clip-rule="evenodd" d="M92.3782 272.266C92.3865 272.263 92.392 272.255 92.3914 272.246C92.37 271.94 92.3685 271.625 92.3856 271.303L92.4223 270.799L92.4826 270.435C92.5174 270.304 92.5646 270.177 92.6051 270.048C92.7779 269.528 93.182 269.19 93.6607 269.091C94.1444 268.995 94.6486 269.161 95.0365 269.515C95.1304 269.606 95.2286 269.7 95.3063 269.804C95.3927 269.908 95.4748 270.009 95.5102 270.077C95.6091 270.231 95.6874 270.383 95.762 270.535C95.91 270.837 96.0238 271.135 96.1257 271.433C96.3178 272.032 96.4788 272.654 96.5516 273.27C96.8581 275.738 96.4869 278.226 95.407 280.461C95.2087 280.868 94.9768 281.262 94.7207 281.644C94.5908 281.836 94.4167 282.03 94.2637 282.22C94.0816 282.395 93.8963 282.573 93.6881 282.724C92.8369 283.34 91.6968 283.503 90.7623 283.281C89.9224 283.109 89.1776 282.753 88.5019 282.328C87.8248 281.898 87.2162 281.397 86.6654 280.815C86.1058 280.215 85.6713 279.556 85.3057 278.856C84.9445 278.155 84.6473 277.414 84.4981 276.613C84.3514 275.822 84.3247 274.934 84.712 274.111C84.8954 273.712 85.1478 273.354 85.5146 273.051C85.8739 272.749 86.3763 272.573 86.8531 272.588C87.8205 272.621 88.5491 273.203 89.0987 273.735C89.6663 274.287 90.1357 274.914 90.546 275.565C91.9964 277.886 92.8071 280.49 93.5768 282.99C94.0797 284.604 94.5211 286.262 94.8021 287.956C94.9339 288.804 95.0353 289.659 95.0614 290.519C95.0875 291.378 95.0434 292.237 94.9625 293.087C94.8332 294.148 94.6765 293.978 94.5118 293.086C94.421 292.61 94.3017 291.992 94.1643 291.275C94.0001 290.534 93.8354 289.681 93.6781 288.752C93.3971 287.105 92.9277 285.492 92.4248 283.868C91.9349 282.226 91.4456 280.594 90.8512 279.04C90.2557 277.49 89.5314 275.97 88.4876 274.791C88.2302 274.498 87.9392 274.22 87.6663 274.032C87.3828 273.845 87.08 273.729 86.8233 273.73C86.5659 273.723 86.3415 273.815 86.1239 274.025C85.9063 274.236 85.7216 274.553 85.6284 274.859C85.3865 275.636 85.573 276.632 85.9398 277.53C86.3048 278.435 86.8506 279.319 87.5152 280.014C88.2103 280.718 89.0465 281.323 89.9324 281.725C90.8139 282.106 91.7875 282.288 92.5491 281.932C92.97 281.749 93.3318 281.427 93.6309 281.023C93.9349 280.583 94.2034 280.105 94.426 279.602C94.8587 278.591 95.1472 277.501 95.2696 276.393C95.4033 275.285 95.3753 274.158 95.1795 273.074C95.0688 272.538 94.9227 272.009 94.7157 271.503C94.6131 271.253 94.4969 271.015 94.3657 270.81C94.2569 270.639 94.2016 270.573 94.0741 270.501C93.9237 270.415 93.7347 270.506 93.675 270.662C93.642 270.735 93.6141 270.818 93.6023 270.893C93.5749 271.018 93.5444 271.199 93.5388 271.357C93.5065 272.02 93.5817 272.717 93.7111 273.396C93.8422 274.075 94.03 274.749 94.2923 275.381C94.5485 275.996 94.8973 276.642 95.343 276.95C95.7117 277.176 96.1668 277.286 96.6038 277.204C97.0465 277.129 97.481 276.892 97.8621 276.579C98.62 275.947 99.2274 275.043 99.5183 274.105C99.6619 273.66 99.6663 273.149 99.6023 272.665C99.5326 272.188 99.3585 271.714 99.0732 271.47C98.7779 271.225 98.4832 271.229 98.1717 271.523C97.8584 271.823 97.6029 272.277 97.4101 272.741C97.251 273.103 97.1584 273.472 97.067 273.88C96.9644 274.275 96.896 274.678 96.8301 275.08C96.7114 275.886 96.6399 276.697 96.6225 277.509C96.5858 279.133 96.7089 280.755 96.9905 282.355C97.1148 283.06 97.2696 283.743 97.4456 284.44C97.7664 285.736 98.043 286.568 98.1922 287.171C98.3489 287.771 98.3738 288.145 98.3284 288.481C98.3073 288.634 98.3048 288.827 98.2662 288.93C98.1668 289.27 97.3971 288.37 96.707 286.429C95.7079 283.557 95.2081 280.413 95.3449 277.211C95.3878 276.411 95.463 275.607 95.5973 274.806C95.6725 274.408 95.7173 274.003 95.8136 273.604L95.9454 272.997C96.0039 272.767 96.0723 272.561 96.1481 272.35C96.3042 271.933 96.4888 271.523 96.7599 271.108C97.0309 270.713 97.3927 270.226 98.1804 269.964C98.5559 269.879 98.9737 269.871 99.3275 270.043C99.7011 270.165 99.9672 270.394 100.184 270.635C100.614 271.128 100.775 271.646 100.887 272.129C101.024 272.857 101.041 273.524 100.857 274.294C100.663 274.995 100.355 275.592 99.9821 276.149C99.6054 276.701 99.1571 277.207 98.6019 277.636C98.0499 278.057 97.361 278.418 96.5466 278.483C96.3483 278.512 96.1382 278.476 95.9361 278.467C95.7341 278.442 95.5382 278.377 95.3418 278.326C95.1577 278.252 94.9806 278.164 94.8034 278.077C94.6051 277.96 94.4335 277.819 94.2899 277.679C93.7428 277.107 93.4618 276.512 93.2112 275.921C92.7431 274.735 92.463 273.542 92.365 272.285C92.3643 272.276 92.3698 272.268 92.3782 272.266V272.266Z" fill="#231F20"/>
<path fill-rule="evenodd" clip-rule="evenodd" d="M117.022 273.764C117.008 273.873 116.865 273.825 116.641 273.693C116.57 273.651 116.401 273.478 116.396 273.435C116.385 273.352 116.375 273.269 116.38 273.198C116.38 273.155 116.663 272.704 116.763 272.546C116.856 272.391 116.978 272.266 117.111 272.154C117.376 271.919 117.658 271.701 117.958 271.502C118.024 271.459 118.099 271.427 118.178 271.407C118.456 271.342 118.694 271.219 118.93 271.076C118.97 271.053 119.016 271.041 119.039 270.982C119.068 270.874 119.778 270.592 119.887 270.605C120.146 270.616 120.393 270.602 120.645 270.634C120.681 270.639 120.714 270.613 120.754 270.663C120.847 270.777 120.914 270.746 120.988 270.746C121.089 270.744 121.192 270.755 121.295 270.789C121.346 270.805 121.4 270.872 121.451 270.924C121.497 270.97 121.486 271.157 121.473 271.178C121.436 271.24 121.476 271.324 121.484 271.4V271.4C121.491 271.453 121.476 271.503 121.439 271.541C121.399 271.58 121.341 271.634 121.28 271.688C121.104 271.844 120.868 271.972 120.648 272.058V272.058C120.475 272.126 120.301 272.208 120.268 272.234V272.234C120.195 272.283 120.098 272.251 120.021 272.294C119.987 272.313 119.947 272.336 119.907 272.36C119.713 272.474 119.518 272.665 119.299 272.619C119.289 272.617 119.28 272.615 119.27 272.612C119.239 272.604 119.221 272.62 119.202 272.633C119.031 272.74 118.835 272.804 118.645 272.888C118.55 272.934 118.469 273.001 118.381 273.059C118.365 273.069 118.34 273.067 118.321 273.072C118.296 273.079 118.268 273.081 118.248 273.095C118.046 273.241 117.806 273.347 117.636 273.539C117.595 273.579 117.303 273.672 117.261 273.728C117.237 273.758 117.028 273.719 117.022 273.764" fill="#231F20"/>
<path fill-rule="evenodd" clip-rule="evenodd" d="M111.032 259.91C111.017 260.022 110.864 259.971 110.632 259.837C110.558 259.794 110.382 259.616 110.376 259.572C110.363 259.485 110.351 259.399 110.354 259.324C110.354 259.279 110.624 258.797 110.715 258.622C110.801 258.454 110.918 258.317 111.045 258.193C111.304 257.941 111.58 257.71 111.855 257.489C111.917 257.44 111.988 257.403 112.066 257.381C112.335 257.301 112.55 257.152 112.744 256.977C112.776 256.948 112.817 256.93 112.821 256.864C112.833 256.754 113.385 256.344 113.475 256.324C113.707 256.275 113.916 256.193 114.136 256.124C114.169 256.116 114.184 256.081 114.245 256.114C114.387 256.193 114.427 256.134 114.489 256.104C114.576 256.062 114.665 256.023 114.77 256.004C114.822 255.994 114.908 256.029 114.985 256.05C115.055 256.069 115.167 256.244 115.17 256.271C115.176 256.349 115.266 256.403 115.323 256.468C115.342 256.49 115.368 256.518 115.381 256.538V256.538C115.675 256.931 114.944 257.485 114.587 257.822C114.524 257.881 114.477 257.926 114.462 257.944C114.43 257.983 114.369 257.983 114.317 257.994C114.292 258.001 113.809 258.458 113.787 258.466C113.666 258.527 113.584 258.642 113.405 258.614C113.37 258.609 113.351 258.629 113.331 258.645C113.154 258.786 112.943 258.873 112.742 258.976C112.642 259.029 112.56 259.108 112.468 259.172C112.451 259.185 112.425 259.182 112.404 259.189C112.377 259.196 112.347 259.198 112.327 259.215C112.127 259.389 111.863 259.485 111.686 259.687C111.643 259.728 111.329 259.818 111.285 259.876C111.259 259.906 111.038 259.864 111.032 259.91" fill="#231F20"/>
<path fill-rule="evenodd" clip-rule="evenodd" d="M102.981 313.04C102.974 313.036 102.966 313.038 102.962 313.044C102.635 313.51 102.246 313.979 101.73 314.345C101.535 314.47 101.351 314.62 101.125 314.698C100.736 314.859 100.279 314.9 99.8834 314.838C99.4817 314.777 99.1181 314.64 98.7923 314.463C98.5026 314.308 98.2228 314.148 97.9567 313.976C97.7882 313.863 97.6154 313.754 97.4594 313.625C97.3095 313.489 97.1833 313.326 97.0783 313.147C97.0142 313.034 97.1324 312.942 97.3226 312.889V312.889C97.7501 312.775 98.1545 313.023 98.5307 313.256C98.9483 313.514 99.3667 313.731 99.7833 313.892C100.165 314.029 100.524 313.924 100.873 313.731C101.254 313.525 101.593 313.182 101.885 312.776C102.069 312.529 102.232 312.255 102.389 311.975C102.621 311.546 102.855 311.104 103.058 310.646C103.212 310.29 103.317 309.908 103.485 309.545C103.523 309.464 103.552 309.38 103.596 309.303C103.778 309.023 103.924 308.989 104.186 309.097C104.242 309.119 104.297 309.135 104.342 309.157C104.478 309.222 104.606 309.472 104.554 309.689C104.407 310.34 104.136 310.948 103.811 311.592C103.575 312.066 103.309 312.549 103 313.035C102.996 313.042 102.987 313.044 102.981 313.04V313.04Z" fill="#231F20"/>
<path fill-rule="evenodd" clip-rule="evenodd" d="M94.5798 252.863C94.6488 252.96 94.5139 253.049 94.2708 253.131C94.1931 253.157 93.9562 253.16 93.9195 253.134C93.8499 253.082 93.7796 253.029 93.728 252.976C93.7001 252.942 93.5098 252.417 93.4184 252.245C93.3357 252.076 93.2922 251.907 93.2562 251.736C93.1841 251.39 93.0777 251.052 93.0174 250.708C93.0019 250.633 93.0038 250.554 93.0174 250.474C93.0678 250.197 93.0205 249.933 92.9316 249.677C92.9167 249.634 92.9155 249.588 92.8533 249.556C92.8292 249.544 92.8016 249.499 92.774 249.436C92.571 248.967 92.6699 248.439 92.7346 247.932V247.932C92.7389 247.896 92.7122 247.865 92.7657 247.82C92.89 247.715 92.8458 247.65 92.8546 247.571C92.8565 247.543 92.8582 247.515 92.8604 247.488C92.8734 247.321 92.9609 247.178 93.061 247.044V247.044C93.1045 246.985 93.2307 246.979 93.2543 246.99C93.3121 247.023 93.3712 246.969 93.4246 246.951C93.4433 246.945 93.4675 246.937 93.485 246.935C93.5138 246.929 93.6642 247.026 93.8163 247.138C94.0685 247.325 94.2306 247.609 94.3566 247.897V247.897C94.4536 248.117 94.5592 248.349 94.5866 248.395V248.395C94.6445 248.489 94.6068 248.612 94.6421 248.717C94.7134 248.928 94.8314 249.279 94.8309 249.301C94.8378 249.451 94.913 249.593 94.8054 249.762C94.7849 249.796 94.7961 249.824 94.803 249.854C94.8577 250.107 94.839 250.372 94.8347 250.631C94.8322 250.764 94.862 250.894 94.8626 251.026C94.8633 251.05 94.8452 251.075 94.8378 251.1C94.8284 251.131 94.8129 251.163 94.8148 251.193C94.8365 251.503 94.7768 251.819 94.8235 252.125C94.8334 252.196 94.7016 252.542 94.7184 252.621C94.7265 252.667 94.5505 252.824 94.5798 252.863" fill="#231F20"/>
<path fill-rule="evenodd" clip-rule="evenodd" d="M74.4505 253.954C74.3181 253.937 74.3858 253.76 74.5798 253.5C74.6414 253.418 74.8782 253.221 74.9292 253.212C75.028 253.194 75.1244 253.178 75.2027 253.176C75.2487 253.18 75.7007 253.419 75.8729 253.47C76.0333 253.529 76.1639 253.617 76.2895 253.714L77.0883 254.271C77.148 254.313 77.1978 254.368 77.2425 254.434C77.3917 254.664 77.6056 254.81 77.8412 254.923C77.8804 254.942 77.9133 254.974 77.9768 254.951C78.0768 254.915 78.6886 255.278 78.7508 255.362C78.8987 255.567 79.0697 255.74 79.2326 255.928C79.2562 255.955 79.2979 255.956 79.2929 256.026C79.2811 256.187 79.3557 256.203 79.4135 256.249C79.4931 256.313 79.5695 256.386 79.6317 256.479C79.6628 256.525 79.6628 256.622 79.6709 256.704C79.679 256.779 79.5459 256.953 79.5204 256.965C79.4458 257 79.4247 257.107 79.3818 257.188C79.3675 257.214 79.3482 257.249 79.3339 257.27C79.301 257.313 78.6159 257.346 78.5624 257.313C78.5562 257.31 78.3566 257.229 78.144 257.142C77.9314 257.056 77.7076 256.968 77.6578 256.955C77.6062 256.942 77.5795 256.887 77.5459 256.843C77.5316 256.826 76.8701 256.571 76.8471 256.551C76.7315 256.462 76.5761 256.428 76.5232 256.242C76.5133 256.205 76.4841 256.195 76.4586 256.182C76.2335 256.061 76.0501 255.877 75.8617 255.702C75.7641 255.613 75.6485 255.548 75.5434 255.468C75.5248 255.454 75.5179 255.424 75.5043 255.403C75.4869 255.377 75.4757 255.341 75.452 255.324C75.2034 255.133 75.015 254.873 74.7533 254.691C74.6892 254.65 74.5562 254.293 74.4872 254.246C74.4455 254.22 74.5021 253.961 74.4505 253.954" fill="#231F20"/>
</g>
<path d="M559 203.502C559 203.502 561.499 194.315 561.554 183.161C561.642 165.159 555.643 146.235 556.257 128.243C556.661 116.379 559.264 100.122 559.264 100.122" stroke="black" stroke-width="7"/>
<g filter="url(#filter2_d_881_49)">
<path d="M504.568 554.861V577.451L492.782 571.558C486.299 568.415 480.21 565.665 479.031 565.665C474.513 565.665 477.656 571.754 486.103 579.219C492.192 584.522 494.353 587.469 492.585 588.058C491.014 588.648 479.424 591.791 466.459 594.934C442.298 600.827 437.387 603.38 441.119 607.113C442.494 608.488 451.923 607.898 472.942 604.755C489.442 602.398 503.389 601.023 503.979 601.612C504.568 602.398 501.228 609.273 496.71 617.131C491.996 624.988 488.067 632.06 487.674 632.649C487.281 633.435 488.264 635.007 489.639 636.185C491.996 638.15 493.96 637.167 500.246 631.667C504.568 627.738 508.89 624.596 509.872 624.596C510.854 624.596 512.818 630.489 514.39 637.757C517.729 654.65 520.086 659.954 524.408 659.954C529.712 659.954 530.694 653.865 529.122 631.274C528.337 619.881 528.337 610.845 529.319 610.845C530.301 610.845 538.159 613.988 546.802 617.72C563.892 625.185 569.392 626.167 569.392 621.845C569.392 617.917 566.249 615.167 551.123 604.755C543.855 600.041 537.962 595.523 537.962 594.934C537.962 594.344 547.98 591.005 560.159 587.469C581.964 581.183 591 577.058 591 573.522C591 570.575 578.624 571.165 558.981 574.701C549.552 576.469 541.105 577.451 540.516 576.665C539.926 576.076 541.302 570.968 543.659 565.468C552.498 544.057 546.998 542.092 533.248 561.932C528.14 569.593 523.033 575.093 522.247 574.111C521.461 573.326 519.301 565.468 517.336 556.825C513.408 538.36 510.854 532.27 507.122 532.27C505.157 532.27 504.568 537.378 504.568 554.861Z" fill="#FF6258"/>
<path d="M506.068 577.451V579.878L503.897 578.792L492.127 572.907C492.125 572.906 492.122 572.905 492.12 572.904C488.889 571.337 485.77 569.875 483.318 568.808C482.09 568.272 481.047 567.844 480.249 567.552C479.85 567.405 479.531 567.3 479.292 567.234C479.09 567.178 479.006 567.167 479.003 567.165C478.713 567.167 478.548 567.205 478.468 567.233C478.458 567.416 478.513 567.945 479.036 568.95C480.185 571.159 482.916 574.4 487.092 578.091C490.143 580.748 492.314 582.902 493.5 584.519C494.064 585.288 494.57 586.149 494.665 587.009C494.719 587.488 494.652 588.049 494.312 588.559C493.985 589.049 493.518 589.324 493.088 589.472C492.178 589.808 488.813 590.757 484.18 591.988C479.456 593.243 473.307 594.817 466.815 596.391C454.694 599.347 447.594 601.425 443.986 603.182C443.098 603.614 442.484 603.998 442.078 604.332C441.667 604.669 441.547 604.891 441.515 604.979C441.499 605.022 441.484 605.068 441.538 605.202C441.605 605.369 441.77 605.632 442.125 605.996C442.16 606.012 442.24 606.044 442.388 606.081C442.694 606.159 443.155 606.228 443.81 606.269C445.116 606.352 447.003 606.315 449.557 606.132C454.654 605.768 462.219 604.842 472.72 603.272L472.72 603.272L472.729 603.27C480.995 602.09 488.629 601.154 494.277 600.586C497.098 600.303 499.441 600.11 501.126 600.025C501.963 599.983 502.668 599.966 503.198 599.982C503.458 599.99 503.718 600.007 503.947 600.043C504.06 600.061 504.204 600.089 504.356 600.139C504.47 600.177 504.771 600.283 505.039 600.552L505.115 600.627L505.179 600.712C505.463 601.092 505.524 601.497 505.54 601.723C505.558 601.973 505.534 602.214 505.503 602.415C505.439 602.82 505.308 603.278 505.146 603.75C504.818 604.707 504.287 605.944 503.615 607.362C502.266 610.21 500.281 613.93 498.011 617.879L498.004 617.891L497.997 617.903C495.647 621.82 493.491 625.542 491.873 628.362C491.379 629.223 490.929 630.011 490.536 630.697C489.886 631.836 489.393 632.698 489.12 633.159C489.15 633.245 489.204 633.366 489.293 633.52C489.559 633.982 490.025 634.539 490.607 635.04C491.071 635.425 491.39 635.56 491.644 635.6C491.892 635.64 492.258 635.618 492.868 635.351C494.186 634.774 496.07 633.328 499.248 630.548C501.438 628.557 503.635 626.759 505.425 625.448C506.318 624.794 507.132 624.245 507.806 623.852C508.141 623.657 508.467 623.485 508.767 623.357C509.021 623.25 509.43 623.096 509.872 623.096C510.705 623.096 511.232 623.666 511.421 623.885C511.68 624.187 511.906 624.561 512.101 624.937C512.5 625.703 512.915 626.75 513.33 627.967C514.164 630.42 515.062 633.77 515.856 637.44L515.859 637.453L515.861 637.466C517.533 645.924 518.931 651.314 520.398 654.575C521.128 656.197 521.822 657.167 522.47 657.726C523.071 658.246 523.679 658.454 524.408 658.454C525.412 658.454 526.013 658.185 526.477 657.658C527.014 657.049 527.524 655.915 527.863 653.843C528.542 649.699 528.414 642.706 527.626 631.378L527.626 631.378C527.232 625.66 527.033 620.512 527.058 616.777C527.07 614.919 527.138 613.364 527.275 612.252C527.341 611.71 527.433 611.188 527.578 610.768C527.647 610.566 527.762 610.285 527.963 610.027C528.166 609.767 528.613 609.345 529.319 609.345C529.685 609.345 530.115 609.461 530.41 609.545C530.776 609.65 531.227 609.798 531.744 609.978C532.782 610.341 534.148 610.859 535.739 611.488C538.925 612.748 543.066 614.473 547.396 616.343L547.402 616.346C555.971 620.088 561.462 622.125 564.774 622.727C566.472 623.036 567.267 622.899 567.584 622.737L567.588 622.735C567.694 622.681 567.892 622.581 567.892 621.845C567.892 621.094 567.749 620.436 567.348 619.7C566.926 618.928 566.191 618.018 564.91 616.832C562.332 614.442 557.868 611.219 550.29 606.003C546.637 603.633 543.325 601.309 540.915 599.496C539.712 598.59 538.716 597.799 538.011 597.185C537.663 596.882 537.358 596.598 537.129 596.351C537.018 596.231 536.893 596.086 536.787 595.928C536.733 595.849 536.665 595.738 536.605 595.602C536.552 595.481 536.462 595.242 536.462 594.934C536.462 594.403 536.727 594.047 536.829 593.923C536.954 593.768 537.088 593.659 537.173 593.595C537.35 593.462 537.55 593.348 537.725 593.257C538.09 593.068 538.583 592.854 539.161 592.623C540.33 592.156 541.994 591.562 544.017 590.884C548.069 589.525 553.639 587.8 559.741 586.028L559.744 586.028C570.637 582.887 578.258 580.309 583.137 578.098C585.584 576.989 587.255 576.01 588.292 575.153C589.087 574.495 589.368 574.029 589.459 573.748C589.28 573.656 588.964 573.54 588.455 573.435C587.171 573.169 585.158 573.07 582.416 573.179C576.971 573.396 569.047 574.413 559.252 576.176C554.514 577.064 550.008 577.758 546.597 578.132C544.896 578.318 543.433 578.428 542.337 578.438C541.796 578.443 541.292 578.424 540.874 578.363C540.667 578.332 540.429 578.284 540.199 578.199C540.018 578.133 539.669 577.983 539.384 577.651C539.16 577.398 539.051 577.127 538.994 576.941C538.928 576.725 538.9 576.517 538.888 576.343C538.865 575.997 538.892 575.619 538.939 575.25C539.035 574.501 539.246 573.558 539.537 572.508C540.122 570.396 541.078 567.684 542.276 564.887C544.468 559.575 545.734 555.557 546.218 552.83C546.463 551.452 546.487 550.517 546.394 549.95C546.376 549.835 546.355 549.75 546.337 549.688C546.21 549.722 545.991 549.8 545.657 549.99C544.98 550.376 544.083 551.08 542.97 552.174C540.757 554.349 537.899 557.856 534.488 562.776C531.906 566.647 529.31 569.997 527.236 572.273C526.207 573.402 525.259 574.321 524.474 574.904C524.097 575.184 523.654 575.467 523.19 575.614C522.77 575.747 521.811 575.902 521.125 575.107C520.842 574.797 520.646 574.386 520.523 574.113C520.36 573.75 520.187 573.3 520.009 572.79C519.65 571.765 519.235 570.405 518.79 568.821C517.897 565.647 516.86 561.496 515.874 557.157L515.871 557.147L515.869 557.137C513.904 547.9 512.307 541.887 510.771 538.2C510.002 536.354 509.296 535.213 508.658 534.55C508.159 534.03 507.736 533.834 507.345 533.784C507.323 533.825 507.297 533.878 507.266 533.947C507.031 534.48 506.792 535.475 506.599 537.178C506.217 540.543 506.068 546.108 506.068 554.861V577.451ZM489.086 633.033C489.086 633.033 489.086 633.035 489.086 633.039C489.086 633.035 489.086 633.033 489.086 633.033ZM546.273 549.541C546.273 549.542 546.277 549.55 546.288 549.562C546.279 549.546 546.274 549.54 546.273 549.541ZM507.423 533.662C507.423 533.661 507.419 533.665 507.411 533.675C507.42 533.667 507.423 533.662 507.423 533.662Z" stroke="black" stroke-width="3"/>
</g>
<circle cx="266" cy="182.271" r="10" fill="black"/>
<circle cx="389" cy="182.271" r="10" fill="black"/>
</g>
<path d="M44.1031 2.82881C43.455 4.34753 45.3199 8.11288 47.3014 9.29628C48.817 10.176 49.7321 9.51876 49.6917 7.56119C49.674 5.49401 47.7421 2.86009 45.9439 2.40499C44.5715 2.04408 44.4214 2.09686 44.1031 2.82881Z" fill="black"/>
<path d="M32.6828 5.57125C32.0348 7.08996 33.8997 10.8553 35.8812 12.0387C37.3967 12.9184 38.3119 12.2612 38.2715 10.3036C38.2538 8.23644 36.3219 5.60252 34.5237 5.14742C33.1513 4.78651 33.0012 4.83929 32.6828 5.57125Z" fill="black"/>
<path d="M29.5561 17.578C30.2561 19.7101 34.9538 23.0991 38.8355 24.2444C40.0369 24.6248 42.0209 24.7198 43.7309 24.5249C46.4137 24.2014 46.7784 24.0528 49.9739 21.9227C53.0404 19.8787 53.494 19.4346 54.7893 17.3426C56.4336 14.6401 57.5558 9.21437 56.7181 7.88279C55.9851 6.71767 55.3038 7.45531 54.2285 10.7708C53.0319 14.4034 52.2678 15.8105 50.4855 17.5655C48.7792 19.2226 45.355 20.8436 43.0788 21.0852C40.3751 21.3754 34.9019 19.4483 31.718 17.0819C30.0995 15.8928 29.0831 16.0978 29.5561 17.578Z" fill="black"/>
<g filter="url(#filter3_d_881_49)">
<path d="M85.64 26L85.64 4.328L77.9 4.328L77.9 0.799998L97.268 0.799998L97.268 4.328L89.528 4.328L89.528 26L85.64 26ZM103.279 26.504C102.007 26.504 100.867 26.288 99.8592 25.856C98.8752 25.424 98.0832 24.788 97.4832 23.948C96.9072 23.108 96.6192 22.088 96.6192 20.888C96.6192 19.664 96.9072 18.656 97.4832 17.864C98.0832 17.048 98.8872 16.436 99.8952 16.028C100.927 15.62 102.091 15.416 103.387 15.416L108.787 15.416L108.787 14.264C108.787 13.232 108.475 12.404 107.851 11.78C107.227 11.156 106.267 10.844 104.971 10.844C103.699 10.844 102.727 11.144 102.055 11.744C101.383 12.344 100.939 13.124 100.723 14.084L97.2672 12.968C97.5552 12.008 98.0112 11.144 98.6352 10.376C99.2832 9.584 100.135 8.948 101.191 8.468C102.247 7.988 103.519 7.748 105.007 7.748C107.311 7.748 109.123 8.336 110.443 9.512C111.763 10.688 112.423 12.356 112.423 14.516L112.423 21.824C112.423 22.544 112.759 22.904 113.431 22.904L114.943 22.904L114.943 26L112.171 26C111.331 26 110.647 25.784 110.119 25.352C109.591 24.92 109.327 24.332 109.327 23.588L109.327 23.48L108.787 23.48C108.595 23.84 108.307 24.26 107.923 24.74C107.539 25.22 106.975 25.64 106.231 26C105.487 26.336 104.503 26.504 103.279 26.504ZM103.819 23.444C105.307 23.444 106.507 23.024 107.419 22.184C108.331 21.32 108.787 20.144 108.787 18.656L108.787 18.296L103.603 18.296C102.619 18.296 101.827 18.512 101.227 18.944C100.627 19.352 100.327 19.964 100.327 20.78C100.327 21.596 100.639 22.244 101.263 22.724C101.887 23.204 102.739 23.444 103.819 23.444ZM125.68 26.504C123.424 26.504 121.552 26 120.064 24.992C118.576 23.984 117.664 22.46 117.328 20.42L120.784 19.592C120.976 20.576 121.3 21.356 121.756 21.932C122.212 22.508 122.776 22.916 123.448 23.156C124.144 23.396 124.888 23.516 125.68 23.516C126.856 23.516 127.756 23.288 128.38 22.832C129.028 22.376 129.352 21.788 129.352 21.068C129.352 20.348 129.052 19.82 128.452 19.484C127.852 19.148 126.964 18.872 125.788 18.656L124.564 18.44C123.364 18.224 122.272 17.912 121.288 17.504C120.304 17.096 119.524 16.532 118.948 15.812C118.372 15.092 118.084 14.168 118.084 13.04C118.084 11.36 118.708 10.064 119.956 9.152C121.204 8.216 122.86 7.748 124.924 7.748C126.916 7.748 128.548 8.204 129.82 9.116C131.116 10.004 131.956 11.216 132.34 12.752L128.884 13.724C128.668 12.644 128.212 11.888 127.516 11.456C126.82 11 125.956 10.772 124.924 10.772C123.916 10.772 123.124 10.964 122.548 11.348C121.972 11.708 121.684 12.224 121.684 12.896C121.684 13.616 121.96 14.144 122.512 14.48C123.088 14.816 123.856 15.068 124.816 15.236L126.076 15.452C127.348 15.668 128.512 15.968 129.568 16.352C130.624 16.736 131.452 17.288 132.052 18.008C132.676 18.728 132.988 19.688 132.988 20.888C132.988 22.664 132.328 24.044 131.008 25.028C129.688 26.012 127.912 26.504 125.68 26.504ZM137.322 26L137.322 0.799998L141.03 0.799998L141.03 15.164L141.606 15.164L148.59 8.252L153.522 8.252L144.558 16.856L153.81 26L148.914 26L141.606 18.62L141.03 18.62L141.03 26L137.322 26ZM172.842 26L172.842 3.464L172.266 3.464L168.126 11.96L164.13 11.96L169.71 0.799998L176.622 0.799998L176.622 26L172.842 26ZM193.378 26.504C192.538 26.504 191.83 26.228 191.254 25.676C190.702 25.124 190.426 24.416 190.426 23.552C190.426 22.688 190.702 21.992 191.254 21.464C191.83 20.912 192.538 20.636 193.378 20.636C194.218 20.636 194.914 20.912 195.466 21.464C196.042 22.016 196.33 22.712 196.33 23.552C196.33 24.416 196.042 25.124 195.466 25.676C194.914 26.228 194.218 26.504 193.378 26.504ZM193.378 13.652C192.538 13.652 191.83 13.376 191.254 12.824C190.702 12.272 190.426 11.564 190.426 10.7C190.426 9.836 190.702 9.14 191.254 8.612C191.83 8.06 192.538 7.784 193.378 7.784C194.218 7.784 194.914 8.06 195.466 8.612C196.042 9.164 196.33 9.86 196.33 10.7C196.33 11.564 196.042 12.272 195.466 12.824C194.914 13.376 194.218 13.652 193.378 13.652ZM210.163 26L210.163 0.799998L214.051 0.799998L214.051 26L210.163 26ZM219.412 26L219.412 8.252L223.048 8.252L223.048 10.916L223.624 10.916C223.96 10.196 224.56 9.524 225.424 8.9C226.288 8.276 227.572 7.964 229.276 7.964C230.62 7.964 231.808 8.264 232.84 8.864C233.896 9.464 234.724 10.316 235.324 11.42C235.924 12.5 236.224 13.808 236.224 15.344L236.224 26L232.516 26L232.516 15.632C232.516 14.096 232.132 12.968 231.364 12.248C230.596 11.504 229.54 11.132 228.196 11.132C226.66 11.132 225.424 11.636 224.488 12.644C223.576 13.652 223.12 15.116 223.12 17.036L223.12 26L219.412 26ZM245.137 26L239.161 8.252L243.085 8.252L247.801 23.264L248.377 23.264L253.093 8.252L257.017 8.252L251.041 26L245.137 26ZM260.615 26L260.615 8.252L264.323 8.252L264.323 26L260.615 26ZM262.487 5.84C261.767 5.84 261.155 5.612 260.651 5.156C260.171 4.676 259.931 4.064 259.931 3.32C259.931 2.576 260.171 1.976 260.651 1.52C261.155 1.04 261.767 0.799998 262.487 0.799998C263.231 0.799998 263.843 1.04 264.323 1.52C264.803 1.976 265.043 2.576 265.043 3.32C265.043 4.064 264.803 4.676 264.323 5.156C263.843 5.612 263.231 5.84 262.487 5.84ZM276.486 26C275.406 26 274.542 25.676 273.894 25.028C273.27 24.38 272.958 23.516 272.958 22.436L272.958 11.384L268.062 11.384L268.062 8.252L272.958 8.252L272.958 2.384L276.666 2.384L276.666 8.252L281.958 8.252L281.958 11.384L276.666 11.384L276.666 21.788C276.666 22.508 277.002 22.868 277.674 22.868L281.382 22.868L281.382 26L276.486 26ZM291.787 26.504C290.515 26.504 289.375 26.288 288.367 25.856C287.383 25.424 286.591 24.788 285.991 23.948C285.415 23.108 285.127 22.088 285.127 20.888C285.127 19.664 285.415 18.656 285.991 17.864C286.591 17.048 287.395 16.436 288.403 16.028C289.435 15.62 290.599 15.416 291.895 15.416L297.295 15.416L297.295 14.264C297.295 13.232 296.983 12.404 296.359 11.78C295.735 11.156 294.775 10.844 293.479 10.844C292.207 10.844 291.235 11.144 290.563 11.744C289.891 12.344 289.447 13.124 289.231 14.084L285.775 12.968C286.063 12.008 286.519 11.144 287.143 10.376C287.791 9.584 288.643 8.948 289.699 8.468C290.755 7.988 292.027 7.748 293.515 7.748C295.819 7.748 297.631 8.336 298.951 9.512C300.271 10.688 300.931 12.356 300.931 14.516L300.931 21.824C300.931 22.544 301.267 22.904 301.939 22.904L303.451 22.904L303.451 26L300.679 26C299.839 26 299.155 25.784 298.627 25.352C298.099 24.92 297.835 24.332 297.835 23.588L297.835 23.48L297.295 23.48C297.103 23.84 296.815 24.26 296.431 24.74C296.047 25.22 295.483 25.64 294.739 26C293.995 26.336 293.011 26.504 291.787 26.504ZM292.327 23.444C293.815 23.444 295.015 23.024 295.927 22.184C296.839 21.32 297.295 20.144 297.295 18.656L297.295 18.296L292.111 18.296C291.127 18.296 290.335 18.512 289.735 18.944C289.135 19.352 288.835 19.964 288.835 20.78C288.835 21.596 289.147 22.244 289.771 22.724C290.395 23.204 291.247 23.444 292.327 23.444ZM312.486 26C311.406 26 310.542 25.676 309.894 25.028C309.27 24.38 308.958 23.516 308.958 22.436L308.958 11.384L304.062 11.384L304.062 8.252L308.958 8.252L308.958 2.384L312.666 2.384L312.666 8.252L317.958 8.252L317.958 11.384L312.666 11.384L312.666 21.788C312.666 22.508 313.002 22.868 313.674 22.868L317.382 22.868L317.382 26L312.486 26ZM322.314 26L322.314 8.252L326.022 8.252L326.022 26L322.314 26ZM324.186 5.84C323.466 5.84 322.854 5.612 322.35 5.156C321.87 4.676 321.63 4.064 321.63 3.32C321.63 2.576 321.87 1.976 322.35 1.52C322.854 1.04 323.466 0.799998 324.186 0.799998C324.93 0.799998 325.542 1.04 326.022 1.52C326.502 1.976 326.742 2.576 326.742 3.32C326.742 4.064 326.502 4.676 326.022 5.156C325.542 5.612 324.93 5.84 324.186 5.84ZM339.841 26.504C338.065 26.504 336.481 26.144 335.089 25.424C333.721 24.68 332.641 23.624 331.849 22.256C331.057 20.888 330.661 19.268 330.661 17.396L330.661 16.856C330.661 14.984 331.057 13.376 331.849 12.032C332.641 10.664 333.721 9.608 335.089 8.864C336.481 8.12 338.065 7.748 339.841 7.748C341.617 7.748 343.201 8.12 344.593 8.864C345.985 9.608 347.077 10.664 347.869 12.032C348.661 13.376 349.057 14.984 349.057 16.856L349.057 17.396C349.057 19.268 348.661 20.888 347.869 22.256C347.077 23.624 345.985 24.68 344.593 25.424C343.201 26.144 341.617 26.504 339.841 26.504ZM339.841 23.192C341.473 23.192 342.793 22.676 343.801 21.644C344.833 20.588 345.349 19.136 345.349 17.288L345.349 16.964C345.349 15.116 344.845 13.676 343.837 12.644C342.829 11.588 341.497 11.06 339.841 11.06C338.233 11.06 336.913 11.588 335.881 12.644C334.873 13.676 334.369 15.116 334.369 16.964L334.369 17.288C334.369 19.136 334.873 20.588 335.881 21.644C336.913 22.676 338.233 23.192 339.841 23.192ZM353.674 26L353.674 8.252L357.31 8.252L357.31 10.916L357.886 10.916C358.222 10.196 358.822 9.524 359.686 8.9C360.55 8.276 361.834 7.964 363.538 7.964C364.882 7.964 366.07 8.264 367.102 8.864C368.158 9.464 368.986 10.316 369.586 11.42C370.186 12.5 370.486 13.808 370.486 15.344L370.486 26L366.778 26L366.778 15.632C366.778 14.096 366.394 12.968 365.626 12.248C364.858 11.504 363.802 11.132 362.458 11.132C360.922 11.132 359.686 11.636 358.75 12.644C357.838 13.652 357.382 15.116 357.382 17.036L357.382 26L353.674 26ZM389.882 26L389.882 4.328L382.142 4.328L382.142 0.799998L401.51 0.799998L401.51 4.328L393.77 4.328L393.77 26L389.882 26ZM407.521 26.504C406.249 26.504 405.109 26.288 404.101 25.856C403.117 25.424 402.325 24.788 401.725 23.948C401.149 23.108 400.861 22.088 400.861 20.888C400.861 19.664 401.149 18.656 401.725 17.864C402.325 17.048 403.129 16.436 404.137 16.028C405.169 15.62 406.333 15.416 407.629 15.416L413.029 15.416L413.029 14.264C413.029 13.232 412.717 12.404 412.093 11.78C411.469 11.156 410.509 10.844 409.213 10.844C407.941 10.844 406.969 11.144 406.297 11.744C405.625 12.344 405.181 13.124 404.965 14.084L401.509 12.968C401.797 12.008 402.253 11.144 402.877 10.376C403.525 9.584 404.377 8.948 405.433 8.468C406.489 7.988 407.761 7.748 409.249 7.748C411.553 7.748 413.365 8.336 414.685 9.512C416.005 10.688 416.665 12.356 416.665 14.516L416.665 21.824C416.665 22.544 417.001 22.904 417.673 22.904L419.185 22.904L419.185 26L416.413 26C415.573 26 414.889 25.784 414.361 25.352C413.833 24.92 413.569 24.332 413.569 23.588L413.569 23.48L413.029 23.48C412.837 23.84 412.549 24.26 412.165 24.74C411.781 25.22 411.217 25.64 410.473 26C409.729 26.336 408.745 26.504 407.521 26.504ZM408.061 23.444C409.549 23.444 410.749 23.024 411.661 22.184C412.573 21.32 413.029 20.144 413.029 18.656L413.029 18.296L407.845 18.296C406.861 18.296 406.069 18.512 405.469 18.944C404.869 19.352 404.569 19.964 404.569 20.78C404.569 21.596 404.881 22.244 405.505 22.724C406.129 23.204 406.981 23.444 408.061 23.444ZM429.922 26.504C427.666 26.504 425.794 26 424.306 24.992C422.818 23.984 421.906 22.46 421.57 20.42L425.026 19.592C425.218 20.576 425.542 21.356 425.998 21.932C426.454 22.508 427.018 22.916 427.69 23.156C428.386 23.396 429.13 23.516 429.922 23.516C431.098 23.516 431.998 23.288 432.622 22.832C433.27 22.376 433.594 21.788 433.594 21.068C433.594 20.348 433.294 19.82 432.694 19.484C432.094 19.148 431.206 18.872 430.03 18.656L428.806 18.44C427.606 18.224 426.514 17.912 425.53 17.504C424.546 17.096 423.766 16.532 423.19 15.812C422.614 15.092 422.326 14.168 422.326 13.04C422.326 11.36 422.95 10.064 424.198 9.152C425.446 8.216 427.102 7.748 429.166 7.748C431.158 7.748 432.79 8.204 434.062 9.116C435.358 10.004 436.198 11.216 436.582 12.752L433.126 13.724C432.91 12.644 432.454 11.888 431.758 11.456C431.062 11 430.198 10.772 429.166 10.772C428.158 10.772 427.366 10.964 426.79 11.348C426.214 11.708 425.926 12.224 425.926 12.896C425.926 13.616 426.202 14.144 426.754 14.48C427.33 14.816 428.098 15.068 429.058 15.236L430.318 15.452C431.59 15.668 432.754 15.968 433.81 16.352C434.866 16.736 435.694 17.288 436.294 18.008C436.918 18.728 437.23 19.688 437.23 20.888C437.23 22.664 436.57 24.044 435.25 25.028C433.93 26.012 432.154 26.504 429.922 26.504ZM441.564 26L441.564 0.799998L445.272 0.799998L445.272 15.164L445.848 15.164L452.832 8.252L457.764 8.252L448.8 16.856L458.052 26L453.156 26L445.848 18.62L445.272 18.62L445.272 26L441.564 26Z" fill="black"/>
</g>
<path fill-rule="evenodd" clip-rule="evenodd" d="M248.717 88.2038C253.388 87.3819 262.737 86.9627 261.845 94.1952C261.277 98.7971 257.019 103.846 252.202 104.225C246.166 104.7 244.286 98.1652 244.306 93.3543C244.311 91.9693 244.43 90.5791 244.629 89.191C245.971 88.7852 247.334 88.4472 248.717 88.2038M257.256 57.2584C250.187 65.3111 244.432 75.6715 242.255 86.395C239.933 87.2308 237.796 88.1983 236.041 89.112C225.845 94.4207 216.23 103.756 210.882 113.971C210.298 115.088 211.36 116.182 212.395 116.17C211.822 116.244 211.247 116.311 210.671 116.371C210.575 114.863 210.718 113.388 211.118 111.869C211.363 110.941 211.889 110.027 212.058 109.097C212.159 108.543 211.806 108.352 211.998 107.763C212.059 107.575 211.87 107.354 211.679 107.493C211.155 107.876 210.616 107.783 210.109 108.188C209.309 108.825 208.621 110.466 208.272 111.375C207.402 113.637 207.175 116.056 207.382 118.457C207.47 119.459 208.35 120.055 209.297 120.045C211.618 120.022 213.936 119.669 216.199 119.173C218.16 118.742 220.415 118.379 222.032 117.141C223.301 116.171 222.584 114.2 220.987 114.271C219.038 114.357 217.147 115.282 215.237 115.696C214.418 115.874 213.597 116.003 212.774 116.117C213.028 116.039 213.267 115.884 213.464 115.629C219.825 107.388 225.649 99.3857 234.66 93.7671C236.873 92.3863 239.214 91.1898 241.646 90.2296C241.617 90.467 241.578 90.7053 241.553 90.9442C240.736 98.7974 244.406 109.822 254.447 107.075C261.574 105.127 269.513 93.7609 262.759 87.3736C258.443 83.2924 251.574 83.6597 245.357 85.4032C246.14 82.1119 247.262 78.8741 248.366 75.7965C250.667 69.3807 253.9 63.2632 257.586 57.5398C257.732 57.3128 257.446 57.0417 257.256 57.2584" fill="black"/>
<defs>
<filter id="filter0_d_881_49" x="42.9993" y="99.5693" width="563" height="589.553" filterUnits="userSpaceOnUse" color-interpolation-filters="sRGB">
<feFlood flood-opacity="0" result="BackgroundImageFix"/>
<feColorMatrix in="SourceAlpha" type="matrix" values="0 0 0 0 0 0 0 0 0 0 0 0 0 0 0 0 0 0 127 0" result="hardAlpha"/>
<feOffset dx="-9" dy="10"/>
<feComposite in2="hardAlpha" operator="out"/>
<feColorMatrix type="matrix" values="0 0 0 0 0 0 0 0 0 0 0 0 0 0 0 0 0 0 0.44 0"/>
<feBlend mode="normal" in2="BackgroundImageFix" result="effect1_dropShadow_881_49"/>
<feBlend mode="normal" in="SourceGraphic" in2="effect1_dropShadow_881_49" result="shape"/>
</filter>
<filter id="filter1_d_881_49" x="52" y="235.122" width="94.0111" height="96.0111" filterUnits="userSpaceOnUse" color-interpolation-filters="sRGB">
<feFlood flood-opacity="0" result="BackgroundImageFix"/>
<feColorMatrix in="SourceAlpha" type="matrix" values="0 0 0 0 0 0 0 0 0 0 0 0 0 0 0 0 0 0 127 0" result="hardAlpha"/>
<feOffset dx="2" dy="4"/>
<feComposite in2="hardAlpha" operator="out"/>
<feColorMatrix type="matrix" values="0 0 0 0 0 0 0 0 0 0 0 0 0 0 0 0 0 0 1 0"/>
<feBlend mode="normal" in2="BackgroundImageFix" result="effect1_dropShadow_881_49"/>
<feBlend mode="normal" in="SourceGraphic" in2="effect1_dropShadow_881_49" result="shape"/>
</filter>
<filter id="filter2_d_881_49" x="440" y="532.27" width="151" height="135.448" filterUnits="userSpaceOnUse" color-interpolation-filters="sRGB">
<feFlood flood-opacity="0" result="BackgroundImageFix"/>
<feColorMatrix in="SourceAlpha" type="matrix" values="0 0 0 0 0 0 0 0 0 0 0 0 0 0 0 0 0 0 127 0" result="hardAlpha"/>
<feOffset dy="7.76457"/>
<feComposite in2="hardAlpha" operator="out"/>
<feColorMatrix type="matrix" values="0 0 0 0 0.745098 0 0 0 0 0.74902 0 0 0 0 0.705882 0 0 0 1 0"/>
<feBlend mode="normal" in2="BackgroundImageFix" result="effect1_dropShadow_881_49"/>
<feBlend mode="normal" in="SourceGraphic" in2="effect1_dropShadow_881_49" result="shape"/>
</filter>
<filter id="filter3_d_881_49" x="77.9" y="0.800049" width="380.152" height="29.7039" filterUnits="userSpaceOnUse" color-interpolation-filters="sRGB">
<feFlood flood-opacity="0" result="BackgroundImageFix"/>
<feColorMatrix in="SourceAlpha" type="matrix" values="0 0 0 0 0 0 0 0 0 0 0 0 0 0 0 0 0 0 127 0" result="hardAlpha"/>
<feOffset dy="4"/>
<feComposite in2="hardAlpha" operator="out"/>
<feColorMatrix type="matrix" values="0 0 0 0 0.906944 0 0 0 0 0.906944 0 0 0 0 0.906944 0 0 0 0.32 0"/>
<feBlend mode="normal" in2="BackgroundImageFix" result="effect1_dropShadow_881_49"/>
<feBlend mode="normal" in="SourceGraphic" in2="effect1_dropShadow_881_49" result="shape"/>
</filter>
</defs>
</svg>
