<svg width="205" height="220" viewBox="0 0 205 220" fill="none" xmlns="http://www.w3.org/2000/svg">
<g filter="url(#filter0_d_792_21829)">
<rect width="143.482" height="149.353" transform="translate(122.359 0.390625) rotate(55.0113)" fill="#F3ABCB"/>
<g filter="url(#filter1_d_792_21829)">
<path d="M155.927 51.346C153.863 51.9752 153.902 51.9479 136.474 67.4073C129.414 73.6301 123.44 78.7429 123.241 78.7077C123.042 78.6725 122.565 74.5797 122.241 69.6229C121.577 60.1864 120.643 54.608 119.533 52.9388C118.22 51.0624 116.601 50.9137 114.451 52.4186C112.184 54.0055 110.761 56.0499 104.029 67.4015C98.5085 76.74 97.0815 78.6124 95.7251 78.3387C93.9699 77.9946 90.9718 75.3753 76.251 61.333C68.2417 53.7177 60.8891 47.0405 59.8845 46.5206C56.6127 44.6753 54.8574 47.2434 56.1197 52.126C56.4949 53.4942 59.055 60.1476 61.8027 66.9026C69.44 85.5533 73.2858 97.5388 71.9176 98.4965C71.6049 98.7153 68.9662 98.5236 65.9914 98.1013C55.3002 96.5566 48.2834 95.9346 47.0364 96.3998C46.0786 96.7789 45.7698 97.1698 45.6876 98.2174C45.5938 99.3315 45.8127 99.6442 47.3098 100.868C48.2792 101.587 53.9902 104.754 59.9904 107.835C65.9907 110.915 71.2991 113.84 71.7994 114.305C73.3122 115.634 73.015 116.541 70.6225 118.448C69.4263 119.402 63.234 124.202 56.8463 129.139C41.9129 140.756 39.8175 142.921 41.3771 145.15C43.183 147.73 48.5776 146.866 70.0349 140.41C79.1862 137.674 87.0788 135.469 87.544 135.552C88.2476 135.642 88.2867 136.197 87.7666 138.366C86.3981 143.983 83.8838 158.615 84.0479 160.014C84.466 163.275 86.4908 163.838 89.1101 161.422C89.8997 160.636 93.9967 155.672 98.2697 150.293C102.504 144.942 106.057 140.533 106.19 140.556C106.323 140.58 107.406 143.375 108.566 146.698C111.408 154.668 116.731 167.017 119.194 171.118C120.957 174.136 121.242 174.461 122.45 174.605C125.237 174.926 125.577 173.581 128.495 152.785C129.554 145.229 130.696 138.955 130.985 138.869C131.275 138.783 134.253 139.96 137.545 141.5C145.812 145.324 151.187 147.095 153.415 146.7C155.182 146.395 155.26 146.341 155.495 145.012C155.863 143.123 152.951 137.881 148.272 131.779C146.267 129.164 144.625 126.818 144.699 126.591C144.707 126.353 148.343 126.721 152.701 127.456C165.363 129.485 176.84 130.655 180.416 130.19C183.215 129.862 184.353 128.075 183.012 126.16C182.438 125.339 173.189 120.28 159.996 113.497C154.719 110.784 150.404 108.446 150.372 108.235C150.341 108.023 154.418 105.111 159.387 101.809C169.688 94.8901 171.267 93.3187 170.204 91.3836C169.43 89.9451 168.809 89.9724 156.941 91.4063C146.71 92.684 142.919 93.0083 142.618 92.5782C142.508 92.4219 143.134 90.8192 144.017 88.9194C144.889 87.0861 146.86 82.9113 148.427 79.6591C153.279 69.4488 157.826 58.6365 158.502 55.7751C159.038 53.7112 159.003 52.7456 158.428 51.9247C157.772 50.9864 157.373 50.9161 155.927 51.346ZM154.726 58.5347C152.736 63.5969 146.508 77.333 142.95 84.4826C139.948 90.4281 139.033 93.2817 139.826 94.4154C140.757 95.7445 145.377 95.7721 154.892 94.471C160.185 93.795 165.017 93.2089 165.627 93.248C166.58 93.2794 166.596 93.3849 165.4 94.3386C164.684 94.8976 160.138 98.138 155.318 101.57L146.522 107.726L147.143 108.864C147.612 109.7 152.12 112.312 163.44 118.25C172.067 122.754 179.263 126.628 179.428 126.863C179.592 127.098 179.611 127.375 179.455 127.485C178.712 128.004 160.848 125.947 151.638 124.356C146.056 123.37 141.302 122.737 140.99 122.956C139.661 123.886 140.118 124.789 146.685 134.171C150.269 139.292 153.095 143.663 152.982 143.917C152.544 145.039 146.633 143.002 137.478 138.576C131.99 135.894 130.063 135.554 128.722 137.133C128.128 137.782 127.053 143.485 125.418 154.298C124.124 163.183 122.888 170.571 122.692 170.708C121.793 171.337 119.077 165.376 113.296 150.376C107.727 135.928 107.645 135.811 105.064 137.617C104.361 138.109 101.64 141.295 99.0557 144.676C92.5388 153.256 87.3941 159.303 87.0657 158.834C86.6553 158.248 87.762 151.591 89.6779 143.26C91.6799 134.637 91.719 133.445 90.3665 132.761C88.8537 132.014 86.3245 132.561 72.5213 136.806C53.7222 142.566 45.0986 144.642 44.3051 143.508C43.7853 142.765 47.0456 140.017 63.0227 127.728C70.036 122.354 74.8561 118.339 75.29 117.628C77.0493 114.649 74.3248 111.838 65.2326 107.252C55.4836 102.311 50.8593 99.7813 50.9297 99.3826C50.9727 98.9448 53.4002 99.1678 63.0556 100.564C71.4483 101.737 73.7899 101.671 74.5249 100.224C76.1708 96.9174 73.4897 87.8443 63.7105 63.4706C59.8254 53.8423 58.5904 50.1637 59.0986 49.808C59.5286 49.5071 59.6107 49.6244 74.3041 63.6275C88.7279 77.4118 91.1866 79.5932 93.786 80.9772C97.6715 83.0336 99.2274 81.5951 107.019 68.5119C112.985 58.3955 115.33 55.0065 116.437 54.7563C117.66 54.4241 118.372 58.3528 119.243 70.4984C119.989 81.2171 120.368 83.3398 121.411 83.25C121.65 83.2578 122.69 82.4135 123.726 81.3972C127.314 77.9535 153.784 55.5247 155.469 54.5201C156.345 54.0237 156.263 54.4889 154.726 58.5347Z" fill="black"/>
</g>
<g filter="url(#filter2_d_792_21829)">
<path d="M128.82 94.0816C123.378 89.3865 113.985 86.1179 106.577 86.3521C102.848 86.516 97.297 88.0715 93.5833 90.0884C83.1066 95.6739 81.2334 109.973 89.7038 119.829C98.3227 129.813 114.874 134.071 124.936 128.892C133.008 124.698 137.86 115.652 136.528 107.091C136.063 104.097 135.672 103.206 133.463 99.8009C131.845 97.3224 130.156 95.2427 128.82 94.0816ZM133.334 107.521C133.861 110.938 132.954 115.883 131.136 119.194C129.748 121.621 129.244 122.149 125.53 124.748C121.777 127.375 121.148 127.641 118.287 128.129C114.659 128.688 107.951 127.675 103.342 125.834C87.1785 119.383 81.9648 101.948 93.6925 93.7395C98.7746 90.1825 107.293 88.1229 112.742 89.0849C115.627 89.6284 122.925 93.3151 125.892 95.7233C129.062 98.3386 132.838 104.316 133.334 107.521Z" fill="black"/>
</g>
<path d="M119.533 108.443C118.74 107.892 117.102 109.213 117.219 110.296C117.45 112.29 120.217 112.333 120.569 110.339C120.722 109.475 120.46 109.018 119.533 108.443Z" fill="black"/>
<path d="M105.058 99.9955C103.663 100.332 103.092 101.43 103.713 102.568C104.405 103.889 106.161 103.651 106.552 102.212C106.856 101.067 105.954 99.7766 105.058 99.9955Z" fill="black"/>
<path d="M107.616 116.378C105.161 118.446 104.559 118.751 103.339 118.672C102.119 118.594 101.85 118.375 101.56 117.296C101.295 116.084 101.768 113.598 102.663 111.632C103.003 110.87 102.921 110.753 102.178 110.69C100.865 110.561 99.1291 113.989 99.2618 116.342C99.4688 120.216 102.514 121.987 106.063 120.318C107.752 119.486 110.352 116.793 110.759 115.46C111.212 113.861 110.344 114.119 107.616 116.378Z" fill="black"/>
</g>
<defs>
<filter id="filter0_d_792_21829" x="0" y="0.390625" width="204.634" height="219.191" filterUnits="userSpaceOnUse" color-interpolation-filters="sRGB">
<feFlood flood-opacity="0" result="BackgroundImageFix"/>
<feColorMatrix in="SourceAlpha" type="matrix" values="0 0 0 0 0 0 0 0 0 0 0 0 0 0 0 0 0 0 127 0" result="hardAlpha"/>
<feOffset dy="16"/>
<feComposite in2="hardAlpha" operator="out"/>
<feColorMatrix type="matrix" values="0 0 0 0 0 0 0 0 0 0 0 0 0 0 0 0 0 0 0.25 0"/>
<feBlend mode="normal" in2="BackgroundImageFix" result="effect1_dropShadow_792_21829"/>
<feBlend mode="normal" in="SourceGraphic" in2="effect1_dropShadow_792_21829" result="shape"/>
</filter>
<filter id="filter1_d_792_21829" x="40.9434" y="45.9211" width="142.63" height="132.721" filterUnits="userSpaceOnUse" color-interpolation-filters="sRGB">
<feFlood flood-opacity="0" result="BackgroundImageFix"/>
<feColorMatrix in="SourceAlpha" type="matrix" values="0 0 0 0 0 0 0 0 0 0 0 0 0 0 0 0 0 0 127 0" result="hardAlpha"/>
<feOffset dy="4"/>
<feComposite in2="hardAlpha" operator="out"/>
<feColorMatrix type="matrix" values="0 0 0 0 0 0 0 0 0 0 0 0 0 0 0 0 0 0 0.25 0"/>
<feBlend mode="normal" in2="BackgroundImageFix" result="effect1_dropShadow_792_21829"/>
<feBlend mode="normal" in="SourceGraphic" in2="effect1_dropShadow_792_21829" result="shape"/>
</filter>
<filter id="filter2_d_792_21829" x="84.3755" y="86.3402" width="52.3713" height="48.7668" filterUnits="userSpaceOnUse" color-interpolation-filters="sRGB">
<feFlood flood-opacity="0" result="BackgroundImageFix"/>
<feColorMatrix in="SourceAlpha" type="matrix" values="0 0 0 0 0 0 0 0 0 0 0 0 0 0 0 0 0 0 127 0" result="hardAlpha"/>
<feOffset dy="4"/>
<feComposite in2="hardAlpha" operator="out"/>
<feColorMatrix type="matrix" values="0 0 0 0 0 0 0 0 0 0 0 0 0 0 0 0 0 0 0.25 0"/>
<feBlend mode="normal" in2="BackgroundImageFix" result="effect1_dropShadow_792_21829"/>
<feBlend mode="normal" in="SourceGraphic" in2="effect1_dropShadow_792_21829" result="shape"/>
</filter>
</defs>
</svg>
