<svg width="41" height="42" viewBox="0 0 41 42" fill="none" xmlns="http://www.w3.org/2000/svg">
<path d="M22.6904 15.6031L13.0679 1.17525L12.9937 1.06396H12.8599H1.54395H1.07665L1.33597 1.4527L16.0682 23.5372L1.35208 41.1537L1.00935 41.564H1.54395H4.89595H5.01286L5.08782 41.4742L17.8455 26.2008L28.02 41.4527L28.0942 41.564H28.2279H39.5439H40.0112L39.7519 41.1752L24.4716 18.2687L38.4958 1.4742L38.8384 1.06396H38.3039H34.9519H34.835L34.7601 1.1537L22.6904 15.6031ZM19.7748 23.6076L19.7747 23.6075L18.2708 21.3936L18.2707 21.3935L6.57579 4.16396H11.1215L20.6991 18.2743L20.6991 18.2744L22.2011 20.4883L22.2011 20.4884L34.4821 38.582H29.9384L19.7748 23.6076Z" fill="black" stroke="black" stroke-width="0.5"/>
</svg>
