<svg width="97" height="89" viewBox="0 0 97 89" fill="none" xmlns="http://www.w3.org/2000/svg">
<g filter="url(#filter0_d_792_22330)">
<path d="M64.5679 -24.41V-1.81978L52.7817 -7.71288C46.2993 -10.8559 40.2098 -13.606 39.0311 -13.606C34.5131 -13.606 37.6561 -7.51644 46.1029 -0.0518494C52.1924 5.25194 54.3532 8.19849 52.5853 8.7878C51.0138 9.37711 39.424 12.5201 26.4592 15.6631C2.29751 21.5562 -2.61341 24.1099 1.11889 27.8421C2.49394 29.2172 11.9229 28.6279 32.9416 25.4849C49.4423 23.1277 63.3893 21.7526 63.9786 22.3419C64.5679 23.1277 61.2285 30.003 56.7104 37.8604C51.996 45.7179 48.0672 52.7896 47.6744 53.3789C47.2815 54.1647 48.2637 55.7361 49.6387 56.9148C51.996 58.8791 53.9603 57.8969 60.2463 52.3967C64.5679 48.468 68.8895 45.325 69.8717 45.325C70.8539 45.325 72.8182 51.2181 74.3897 58.4863C77.7292 75.3798 80.0864 80.6836 84.408 80.6836C89.7118 80.6836 90.694 74.5941 89.1225 52.0039C88.3367 40.6105 88.3367 31.5744 89.3189 31.5744C90.3011 31.5744 98.1586 34.7174 106.802 38.4497C123.892 45.9143 129.392 46.8965 129.392 42.5749C129.392 38.6462 126.249 35.896 111.123 25.4849C103.855 20.7704 97.9621 16.2524 97.9621 15.6631C97.9621 15.0738 107.98 11.7343 120.159 8.19849C141.964 1.91252 151 -2.21265 151 -5.74851C151 -8.69506 138.624 -8.10575 118.981 -4.56989C109.552 -2.80196 101.105 -1.81978 100.516 -2.60552C99.9265 -3.19483 101.302 -8.30219 103.659 -13.8024C112.498 -35.214 106.998 -37.1784 93.2476 -17.3383C88.1403 -9.67724 83.0329 -4.17702 82.2472 -5.1592C81.4614 -5.94495 79.3007 -13.8024 77.3363 -22.4456C73.4075 -40.9107 70.8539 -47.0002 67.1216 -47.0002C65.1572 -47.0002 64.5679 -41.8928 64.5679 -24.41Z" fill="#F3ABCB"/>
<path d="M65.5679 -1.81978V-0.201744L64.1207 -0.925354L52.3454 -6.81306C52.3436 -6.81396 52.3417 -6.81486 52.3399 -6.81575C49.1059 -8.38369 45.9788 -9.84927 43.5181 -10.9213C42.2856 -11.4582 41.2321 -11.8912 40.4214 -12.1882C40.0152 -12.3369 39.6827 -12.4469 39.4261 -12.5183C39.2981 -12.554 39.1981 -12.5775 39.1233 -12.5916C39.043 -12.6068 39.0179 -12.606 39.0311 -12.606C38.5659 -12.606 38.3047 -12.5256 38.1725 -12.4531C38.0684 -12.3959 38.0265 -12.3375 37.9991 -12.2474C37.9128 -11.963 37.9719 -11.2828 38.5924 -10.0895C39.7837 -7.79852 42.5705 -4.50837 46.7623 -0.803604C49.811 1.85189 51.9463 3.97534 53.097 5.54454C53.6529 6.30254 54.0884 7.07321 54.1685 7.7934C54.2122 8.18674 54.1555 8.62195 53.8961 9.01101C53.6449 9.38784 53.2795 9.60712 52.9203 9.73013C52.05 10.0527 48.7101 10.9968 44.0515 12.2343C39.3305 13.4883 33.1854 15.0614 26.6962 16.6346C14.5887 19.5876 7.43284 21.6765 3.76665 23.462C2.85997 23.9035 2.20804 24.3075 1.76046 24.6751C1.30995 25.0451 1.11885 25.3353 1.04521 25.5367C0.942873 25.8166 0.962452 26.2715 1.82599 27.135C1.82411 27.1332 1.82314 27.1322 1.82323 27.1321C1.82419 27.1308 1.926 27.2092 2.26516 27.2953C2.61232 27.3835 3.10775 27.4554 3.77873 27.4979C5.11808 27.5827 7.03052 27.5433 9.59263 27.3603C14.7093 26.9949 22.2902 26.0665 32.7937 24.4959L32.8002 24.495C41.0609 23.3149 48.687 22.3799 54.3269 21.8135C57.1449 21.5304 59.4781 21.3383 61.1506 21.2542C61.9839 21.2123 62.6727 21.1961 63.1828 21.2115C63.4347 21.2192 63.6704 21.2351 63.8691 21.2663C63.9675 21.2817 64.0831 21.3048 64.1985 21.343C64.2895 21.3731 64.5004 21.4495 64.6857 21.6348L64.736 21.6851L64.7786 21.7419C64.9804 22.011 65.0281 22.3053 65.0412 22.4882C65.0554 22.6869 65.037 22.8867 65.0087 23.0672C64.9518 23.4296 64.8308 23.8565 64.6729 24.3174C64.3541 25.2477 63.8322 26.4656 63.1635 27.8774C61.8223 30.7089 59.844 34.4169 57.5773 38.3589L57.5727 38.3669L57.5679 38.3749C55.2154 42.2958 53.0582 46.0218 51.4391 48.843C50.9308 49.7286 50.4714 50.5326 50.0741 51.2279C49.3356 52.5201 48.8118 53.4369 48.5877 53.8045C48.589 53.8234 48.5924 53.8516 48.6006 53.8906C48.6304 54.0316 48.7088 54.2381 48.8598 54.4998C49.1599 55.02 49.6671 55.621 50.2841 56.1509C50.7902 56.5716 51.1911 56.7638 51.5646 56.8236C51.935 56.8828 52.4 56.8312 53.0684 56.5388C54.4711 55.9251 56.4146 54.4204 59.5807 51.6503C61.761 49.6687 63.9462 47.8802 65.7204 46.5808C66.6066 45.9318 67.405 45.3939 68.0575 45.0135C68.3827 44.824 68.6889 44.6634 68.9627 44.5472C69.2054 44.4442 69.5365 44.325 69.8717 44.325C70.468 44.325 70.8657 44.7359 71.0416 44.9404C71.2649 45.2002 71.4697 45.536 71.658 45.8975C72.0393 46.6299 72.4451 47.6491 72.8564 48.858C73.6828 51.2871 74.5762 54.6167 75.3671 58.2749L75.369 58.2836L75.3708 58.2923C77.042 66.7467 78.4485 72.1898 79.9425 75.5096C80.687 77.1641 81.4176 78.2075 82.1429 78.8343C82.8376 79.4346 83.5616 79.6836 84.408 79.6836C85.5191 79.6836 86.2722 79.3776 86.8526 78.7183C87.4814 78.0041 88.0116 76.7592 88.3566 74.6534C89.0467 70.4417 88.9121 63.3897 88.1249 52.0732L88.1248 52.0727C87.731 46.3622 87.533 41.2276 87.5577 37.51C87.5701 35.6571 87.6378 34.1257 87.7708 33.0425C87.8362 32.5101 87.9236 32.0298 88.0504 31.6603C88.1121 31.4807 88.2054 31.259 88.3575 31.0639C88.5106 30.8675 88.8276 30.5744 89.3189 30.5744C89.6042 30.5744 89.9673 30.6679 90.2728 30.7554C90.6249 30.8562 91.0665 31.0005 91.5795 31.1799C92.6077 31.5393 93.9662 32.0544 95.5551 32.6825C98.7353 33.9398 102.871 35.6629 107.198 37.5317L107.202 37.5333C115.763 41.2726 121.306 43.334 124.685 43.9483C126.402 44.2605 127.339 44.1531 127.811 43.9123C128.142 43.7438 128.392 43.432 128.392 42.5749C128.392 41.7467 128.231 41.0049 127.787 40.1903C127.329 39.3511 126.55 38.3985 125.25 37.1943C122.639 34.7747 118.141 31.5292 110.568 26.3163C106.921 23.9508 103.616 21.6324 101.216 19.8261C100.016 18.9234 99.0314 18.1399 98.3397 17.5375C97.9965 17.2385 97.7071 16.9683 97.4962 16.7408C97.3925 16.6289 97.287 16.5053 97.2011 16.3779C97.158 16.3141 97.1066 16.23 97.0632 16.1308C97.0241 16.0414 96.9621 15.8749 96.9621 15.6631C96.9621 15.3031 97.1421 15.0588 97.2161 14.968C97.3065 14.8572 97.4051 14.7758 97.4747 14.7232C97.6177 14.6151 97.7893 14.517 97.9555 14.4307C98.2977 14.253 98.7731 14.0459 99.3468 13.8167C100.503 13.355 102.156 12.7649 104.176 12.0876C108.219 10.7315 113.783 9.00854 119.881 7.23814L119.882 7.23762C130.778 4.09646 138.429 1.51003 143.344 -0.717133C145.806 -1.833 147.523 -2.83342 148.61 -3.73223C149.715 -4.64566 149.998 -5.30933 150 -5.74287C149.99 -5.75725 149.956 -5.80137 149.863 -5.86478C149.646 -6.01424 149.236 -6.18477 148.557 -6.32544C147.212 -6.60401 145.149 -6.70051 142.397 -6.5909C136.916 -6.37265 128.965 -5.35096 119.161 -3.58631C114.432 -2.69959 109.938 -2.00781 106.542 -1.63602C104.848 -1.4505 103.404 -1.34205 102.333 -1.3324C101.801 -1.32761 101.327 -1.34657 100.946 -1.40243C100.758 -1.43015 100.557 -1.47173 100.371 -1.54024C100.22 -1.59579 99.9646 -1.70922 99.7615 -1.94832C99.5993 -2.12959 99.5166 -2.32881 99.4717 -2.47582C99.4206 -2.64305 99.3976 -2.81152 99.3873 -2.96175C99.3668 -3.26119 99.3896 -3.60319 99.4349 -3.95711C99.5264 -4.67221 99.7305 -5.58939 100.019 -6.62942C100.597 -8.71643 101.545 -11.4086 102.737 -14.1903C104.935 -19.5154 106.217 -23.5734 106.71 -26.3528C106.959 -27.7524 106.994 -28.7526 106.888 -29.4009C106.836 -29.7206 106.757 -29.9038 106.696 -29.999C106.645 -30.0784 106.612 -30.0897 106.598 -30.0944L106.598 -30.0946C106.526 -30.1194 106.187 -30.157 105.41 -29.7149C104.679 -29.2985 103.746 -28.5612 102.619 -27.4536C100.373 -25.2464 97.4942 -21.7093 94.0748 -16.7762C91.5023 -12.9181 88.9201 -9.58848 86.866 -7.33404C85.8448 -6.21316 84.9221 -5.32251 84.1757 -4.76785C83.8129 -4.49818 83.4227 -4.2551 83.0385 -4.13316C82.6854 -4.02108 81.9912 -3.92406 81.5006 -4.49324C81.2765 -4.73602 81.1058 -5.08151 80.9792 -5.3627C80.8244 -5.70674 80.6571 -6.14199 80.4808 -6.64589C80.1271 -7.65645 79.7155 -9.00502 79.2711 -10.5851C78.3812 -13.7489 77.3459 -17.8913 76.3611 -22.224L76.3611 -22.224L76.3582 -22.2375C74.3931 -31.4733 72.7883 -37.5279 71.2322 -41.2627C70.4534 -43.1317 69.7189 -44.3384 69.0186 -45.0674C68.3467 -45.7668 67.736 -46.0002 67.1216 -46.0002C67.1208 -46.0002 67.1204 -46.0005 67.1199 -46.0008C67.1184 -46.002 67.1171 -46.003 67.0962 -45.9852C67.0474 -45.9437 66.9398 -45.8227 66.8089 -45.5256C66.5417 -44.9194 66.2961 -43.8613 66.1017 -42.1484C65.7162 -38.7511 65.5679 -33.1589 65.5679 -24.41V-1.81978Z" stroke="black" stroke-width="2"/>
</g>
<defs>
<filter id="filter0_d_792_22330" x="0" y="-47" width="151" height="135.448" filterUnits="userSpaceOnUse" color-interpolation-filters="sRGB">
<feFlood flood-opacity="0" result="BackgroundImageFix"/>
<feColorMatrix in="SourceAlpha" type="matrix" values="0 0 0 0 0 0 0 0 0 0 0 0 0 0 0 0 0 0 127 0" result="hardAlpha"/>
<feOffset dy="7.76457"/>
<feComposite in2="hardAlpha" operator="out"/>
<feColorMatrix type="matrix" values="0 0 0 0 0.745098 0 0 0 0 0.74902 0 0 0 0 0.705882 0 0 0 1 0"/>
<feBlend mode="normal" in2="BackgroundImageFix" result="effect1_dropShadow_792_22330"/>
<feBlend mode="normal" in="SourceGraphic" in2="effect1_dropShadow_792_22330" result="shape"/>
</filter>
</defs>
</svg>
