<svg width="53" height="59" viewBox="0 0 53 59" fill="none" xmlns="http://www.w3.org/2000/svg">
<path d="M4.28731 56.5815C4.26113 57.0388 4.46152 57.4797 4.82325 57.7607C5.18498 58.0417 5.66177 58.1268 6.09838 57.9883L22.5566 52.7686C22.8317 52.6813 23.0728 52.5108 23.2468 52.2805L49.9757 16.8933C50.27 16.5035 50.3387 15.9881 50.1566 15.5349C48.4098 11.1881 45.0594 7.99847 41.5024 5.94117C37.9649 3.89517 34.0789 2.88578 31.1023 3.04178C30.6758 3.06413 30.2832 3.28095 30.0371 3.62998L5.54044 38.3774C5.39054 38.59 5.30321 38.8404 5.28834 39.1001L4.28731 56.5815Z" fill="#B3B3B3"/>
<path d="M3.18391 36.143C3.10896 36.2493 3.06529 36.3745 3.05786 36.5044L2.05684 53.9858C2.04374 54.2144 2.14394 54.4349 2.32481 54.5754C2.50567 54.7159 2.74406 54.7585 2.96237 54.6892L19.4206 49.4694C19.5581 49.4258 19.6787 49.3406 19.7657 49.2254L46.4946 13.8382C46.6418 13.6433 46.6761 13.3856 46.585 13.159C44.9099 8.99058 41.6862 5.90833 38.2283 3.90834C34.7801 1.914 31.0268 0.954081 28.2132 1.10154C27.9999 1.11271 27.8036 1.22112 27.6806 1.39564L3.18391 36.143Z" fill="white" stroke="black" stroke-width="1.39241" stroke-linejoin="round"/>
<path d="M28.2498 1.79689L3.7531 36.5443C6.85338 36.9482 14.2852 39.9661 19.2103 48.8059L45.9392 13.4187C42.7324 5.4387 33.551 1.51906 28.2498 1.79689Z" fill="#FF5757"/>
<path d="M18.5994 49.1399C18.7128 49.3472 18.9236 49.4829 19.1593 49.5002C19.395 49.5175 19.6234 49.414 19.7658 49.2255L42.1379 19.6064C42.2916 19.4029 42.3217 19.1317 42.2165 18.8995C41.2828 16.8383 39.2749 13.8066 36.254 11.3137C33.2241 8.8134 29.1465 6.83365 24.1005 6.96131C23.8805 6.96688 23.676 7.07621 23.5491 7.25614L3.18403 36.1431C3.04424 36.3414 3.01775 36.5982 3.11413 36.8208C3.21051 37.0435 3.41586 37.1999 3.65611 37.2337C6.61595 37.6498 13.9324 40.6048 18.5994 49.1399Z" fill="#F8D044" stroke="black" stroke-width="1.39241" stroke-linejoin="round"/>
<path d="M3.25235 45.2849L2.75184 54.0256L10.981 51.4157C8.27766 47.723 4.70218 45.7898 3.25235 45.2849Z" fill="black"/>
<path d="M17.3887 46.4611L40.3229 15.9894" stroke="black" stroke-width="1.39241" stroke-linecap="round" stroke-linejoin="round"/>
<path d="M9.85444 39.8844L31.3466 8.606" stroke="black" stroke-width="1.39241" stroke-linecap="round" stroke-linejoin="round"/>
</svg>
