<svg width="1200" height="400" viewBox="0 0 1200 400" fill="none" xmlns="http://www.w3.org/2000/svg">
<path d="M478.69 235.062V154.67H497.637V235.062H478.69Z" fill="black"/>
<path d="M469.566 154.783V169.438H423.351V154.783H469.566ZM434.761 135.522H453.707V210.994C453.707 213.542 454.091 215.496 454.859 216.856C455.661 218.182 456.708 219.089 457.999 219.578C459.29 220.066 460.721 220.311 462.291 220.311C463.477 220.311 464.559 220.223 465.536 220.049C466.548 219.874 467.315 219.717 467.839 219.578L471.031 234.39C470.019 234.739 468.571 235.122 466.687 235.541C464.838 235.96 462.57 236.204 459.883 236.274C455.138 236.413 450.864 235.698 447.06 234.128C443.257 232.523 440.239 230.046 438.006 226.696C435.808 223.346 434.726 219.159 434.761 214.135V135.522Z" fill="black"/>
<path d="M363.683 201.92V155.339H382.63V235.731H364.259V221.442H363.421C361.607 225.943 358.624 229.624 354.472 232.486C350.354 235.347 345.277 236.777 339.241 236.777C333.972 236.777 329.314 235.609 325.267 233.271C321.254 230.898 318.114 227.461 315.846 222.96C313.578 218.424 312.444 212.946 312.444 206.526V155.339H331.39V203.595C331.39 208.689 332.786 212.737 335.577 215.737C338.369 218.738 342.032 220.238 346.568 220.238C349.36 220.238 352.064 219.558 354.681 218.197C357.298 216.836 359.444 214.813 361.119 212.126C362.828 209.404 363.683 206.002 363.683 201.92Z" fill="black"/>
<path d="M415.058 127.985V235.174H396.111V127.985H415.058Z" fill="black"/>
<path d="M185.59 128.542H209.352L241.174 206.212H242.43L274.252 128.542H298.013V235.731H279.381V162.091H278.386L248.763 235.417H234.841L205.217 161.934H204.223V235.731H185.59V128.542Z" fill="black"/>
<path d="M544.011 123.457C564.447 123.457 581.052 140.062 581.052 160.499V235.062H561.733V195.465H526.128V235.062H506.969V160.499C506.969 140.062 523.574 123.457 544.011 123.457ZM526.128 176.146H561.733V160.499C561.733 150.759 553.75 142.776 544.011 142.776C534.111 142.776 526.128 150.759 526.128 160.499V176.146Z" fill="#138BFF"/>
<path d="M506.982 176.173V195.628H581.036V176.173H506.982Z" fill="#10C0FF"/>
<path d="M561.823 176.173V195.628H581.036V176.173H561.823Z" fill="#10C0FF"/>
<path d="M506.969 176.173V195.628H526.182V176.173H506.969Z" fill="#10C0FF"/>
<path d="M478.69 142.631V123.539H497.85V142.631H478.69Z" fill="black"/>
<path d="M656.474 234.681L656.474 122.904L637.31 122.904L637.31 234.681L656.474 234.681Z" fill="#10C0FF"/>
<path fill-rule="evenodd" clip-rule="evenodd" d="M656.594 203.27C656.299 206.816 655.461 210.349 654.054 213.741C650.783 221.63 644.788 227.895 637.43 231.63L637.43 168.925C640.687 170.575 643.719 172.751 646.39 175.422C652.413 181.446 655.918 189.301 656.594 197.446L656.594 203.27Z" fill="#10C0FF"/>
<path fill-rule="evenodd" clip-rule="evenodd" d="M637.43 123.297L637.43 123.297L637.43 168.482C624.337 161.936 608.69 164.171 597.993 173.911C587.136 183.65 583.464 198.978 588.733 212.549C594.001 226.12 606.934 235.062 621.463 235.062C627.052 235.062 632.48 233.784 637.43 231.23L637.43 235.062L637.43 235.062L637.43 123.297ZM605.657 199.936C605.657 191.154 612.842 184.129 621.463 184.129C628.01 184.129 633.758 187.961 636.152 193.868C638.547 199.776 637.27 206.642 632.8 211.112C628.169 215.583 621.463 217.02 615.556 214.465C609.489 212.07 605.657 206.322 605.657 199.936Z" fill="#138BFF"/>
<rect x="805.95" y="165.229" width="37.7098" height="19.3721" fill="#138BFF"/>
<path d="M695.628 165.352C714.947 165.352 730.594 181.158 730.754 200.477C730.754 214.687 722.132 227.46 709.04 232.889C695.947 238.477 680.779 235.444 670.721 225.385C660.662 215.326 657.628 200.158 663.057 187.066C668.485 173.973 681.418 165.352 695.628 165.352ZM695.628 216.284C704.25 216.284 711.435 209.259 711.435 200.477C711.435 194.091 707.603 188.343 701.536 185.948C695.628 183.393 688.922 184.83 684.292 189.301C679.821 193.772 678.544 200.637 680.939 206.545C683.334 212.452 689.082 216.284 695.628 216.284Z" fill="#138BFF"/>
<path d="M772.208 165.352C791.527 165.352 807.174 181.158 807.334 200.477C807.334 214.687 798.712 227.46 785.62 232.889C772.527 238.477 757.36 235.444 747.301 225.385C737.242 215.326 734.208 200.158 739.637 187.066C745.065 173.973 757.998 165.352 772.208 165.352ZM772.208 216.284C780.83 216.284 788.015 209.259 788.015 200.477C788.015 194.091 784.183 188.343 778.116 185.948C772.208 183.393 765.502 184.83 760.872 189.301C756.402 193.772 755.124 200.637 757.519 206.545C759.914 212.452 765.662 216.284 772.208 216.284Z" fill="#10C0FF"/>
<path d="M847.604 159.131V140.039H866.764V159.131H847.604Z" fill="#10C0FF"/>
<path d="M772.227 165.319C786.757 165.319 799.689 174.26 804.958 187.832C810.227 201.403 806.555 216.731 795.698 226.47C785 236.21 769.354 238.445 756.261 231.899V277.083H737.102V165.319H756.261V169.151C761.211 166.597 766.639 165.319 772.227 165.319ZM772.227 216.252C780.849 216.252 788.034 209.227 788.034 200.445C788.034 194.059 784.202 188.311 778.135 185.916C772.227 183.361 765.522 184.798 760.891 189.269C756.421 193.739 755.143 200.605 757.538 206.512C759.933 212.42 765.681 216.252 772.227 216.252Z" fill="#138BFF"/>
<path d="M843.624 184.639H834.524V216.252H843.624V235.571H834.045C823.667 235.571 815.204 227.109 815.204 216.731V184.639H809.616V165.32H815.204V123.967H834.524V165.32H843.624V184.639Z" fill="#138BFF"/>
<path d="M866.764 235.571H847.604V165.479H866.764V235.571Z" fill="#138BFF"/>
<path d="M926.133 165.319H947.049L917.991 235.731H897.075L868.016 165.319H888.772L907.453 210.344L926.133 165.319Z" fill="#138BFF"/>
<path d="M978.933 215.932C984.681 215.932 989.151 214.655 994.899 209.706L1007.35 224.395C998.252 232.378 989.79 235.571 979.252 235.571C968.235 235.731 957.538 230.781 950.513 222.159C949.235 220.403 948.118 218.647 947 216.731C945.723 214.176 944.765 211.462 943.967 208.588V208.428C940.294 192.143 948.597 175.378 963.765 168.512C979.092 161.647 997.134 166.437 1006.87 180.168C1007.19 180.487 1007.35 180.966 1007.67 181.286C1007.83 181.445 1007.99 181.765 1008.15 181.924C1008.31 182.563 1008.63 183.042 1008.95 183.521C1009.11 183.68 1009.27 184 1009.27 184.159C1009.59 184.798 1009.91 185.437 1010.23 186.075L1010.39 186.235V186.554H1010.55V186.874L1014.38 195.815L994.899 203.798L992.185 204.916L970.79 213.857C973.185 215.294 976.059 216.092 978.933 215.932ZM963.445 198.05V198.21L964.084 197.89L975.58 193.101L987.395 188.151L987.235 187.991C984.521 185.916 981.168 184.798 977.815 184.798C975.899 184.638 973.983 185.117 972.387 185.916C967.437 187.991 963.924 192.781 963.445 198.05Z" fill="#10C0FF"/>
<path d="M711.437 165.304V235.572H730.753V165.304H711.437Z" fill="#10C0FF"/>
<path fill-rule="evenodd" clip-rule="evenodd" d="M730.753 200.336C730.599 186.752 722.788 174.918 711.437 169.118V231.758C723.093 225.871 730.649 213.936 730.753 200.722V200.336Z" fill="#10C0FF"/>
<path d="M737.097 165.319V277.096H756.261V165.319H737.097Z" fill="#10C0FF"/>
<path fill-rule="evenodd" clip-rule="evenodd" d="M736.976 196.73C737.271 193.184 738.109 189.651 739.516 186.259C742.787 178.37 748.782 172.105 756.14 168.37V231.075C752.882 229.425 749.851 227.249 747.18 224.578C741.156 218.554 737.652 210.699 736.976 202.554V196.73Z" fill="#10C0FF"/>
<path fill-rule="evenodd" clip-rule="evenodd" d="M756.14 276.703H756.14V231.518C769.232 238.064 784.879 235.829 795.577 226.089C806.434 216.35 810.106 201.022 804.837 187.451C799.568 173.88 786.636 164.938 772.106 164.938C766.518 164.938 761.09 166.216 756.14 168.77V164.938H756.14V276.703ZM787.913 200.064C787.913 208.846 780.728 215.871 772.106 215.871C765.56 215.871 759.812 212.039 757.417 206.132C755.022 200.224 756.3 193.358 760.77 188.888C765.4 184.417 772.106 182.98 778.014 185.535C784.081 187.93 787.913 193.678 787.913 200.064Z" fill="#138BFF"/>
<path d="M834.526 123.968L815.207 123.968L815.084 187.054V214.954C815.084 217.924 815.252 219.907 815.699 221.602C816.146 223.298 817.495 226.576 819.288 228.613C821.08 230.651 822.905 232.246 825.271 233.56C827.636 234.874 832.362 235.838 834.526 235.554V123.968Z" fill="#10C0FF"/>
<path d="M926.136 165.319L897.078 235.729H918.019L947.054 165.319H926.136Z" fill="#10C0FF"/>
<path d="M918.014 235.651L907.49 210.432L897.077 235.651H918.014Z" fill="#10C0FF"/>
<rect x="833.697" y="216.099" width="10.0733" height="19.4717" fill="#10C0FF"/>
<rect x="815.124" y="165.226" width="19.4023" height="19.4023" fill="#10C0FF"/>
<path fill-rule="evenodd" clip-rule="evenodd" d="M993.412 204.412C993.688 203.257 993.835 202.051 993.835 200.811C993.835 195.528 991.175 190.867 987.122 188.094L963.274 198.108C963.119 198.985 963.038 199.888 963.038 200.811C963.038 206.328 965.94 211.168 970.3 213.887L993.412 204.412Z" fill="#138BFF"/>
<path d="M1006.71 179.887L943.606 206.383C943.606 206.383 944.134 210.704 946.164 215.054C948.194 219.403 950.465 222.035 950.465 222.035L1014.41 195.82C1012.77 190.438 1010.31 184.253 1006.71 179.887Z" fill="#138BFF"/>
</svg>
