<svg width="85" height="136" viewBox="0 0 85 136" fill="none" xmlns="http://www.w3.org/2000/svg">
<g filter="url(#filter0_d_792_22329)">
<path d="M-1.4321 22.59V45.1802L-13.2183 39.2871C-19.7007 36.1441 -25.7902 33.394 -26.9689 33.394C-31.4869 33.394 -28.3439 39.4836 -19.8971 46.9482C-13.8076 52.2519 -11.6468 55.1985 -13.4147 55.7878C-14.9862 56.3771 -26.576 59.5201 -39.5408 62.6631C-63.7025 68.5562 -68.6134 71.1099 -64.8811 74.8421C-63.5061 76.2172 -54.0771 75.6279 -33.0584 72.4849C-16.5577 70.1277 -2.61071 68.7526 -2.0214 69.3419C-1.4321 70.1277 -4.77152 77.003 -9.28956 84.8604C-14.004 92.7179 -17.9328 99.7896 -18.3256 100.379C-18.7185 101.165 -17.7363 102.736 -16.3613 103.915C-14.004 105.879 -12.0397 104.897 -5.7537 99.3967C-1.4321 95.468 2.88951 92.325 3.87169 92.325C4.85387 92.325 6.81824 98.2181 8.38973 105.486C11.7292 122.38 14.0864 127.684 18.408 127.684C23.7118 127.684 24.694 121.594 23.1225 99.0039C22.3367 87.6105 22.3367 78.5744 23.3189 78.5744C24.3011 78.5744 32.1586 81.7174 40.8018 85.4497C57.8918 92.9143 63.392 93.8965 63.392 89.5749C63.392 85.6462 60.249 82.896 45.1234 72.4849C37.8552 67.7704 31.9621 63.2524 31.9621 62.6631C31.9621 62.0738 41.9804 58.7343 54.1595 55.1985C75.9639 48.9125 85 44.7873 85 41.2515C85 38.3049 72.6245 38.8942 52.9808 42.4301C43.5519 44.198 35.1051 45.1802 34.5158 44.3945C33.9265 43.8052 35.3015 38.6978 37.6588 33.1976C46.4984 11.786 40.9982 9.82163 27.2476 29.6617C22.1403 37.3228 17.0329 42.823 16.2472 41.8408C15.4614 41.0551 13.3007 33.1976 11.3363 24.5544C7.40755 6.08934 4.85387 -0.000198364 1.12158 -0.000198364C-0.842789 -0.000198364 -1.4321 5.10715 -1.4321 22.59Z" fill="#F3ABCB"/>
<path d="M-0.432098 45.1802V46.7983L-1.87931 46.0746L-13.6546 40.1869C-13.6564 40.186 -13.6583 40.1851 -13.6601 40.1842C-16.8941 38.6163 -20.0212 37.1507 -22.4819 36.0787C-23.7144 35.5418 -24.7679 35.1088 -25.5786 34.8118C-25.9848 34.6631 -26.3173 34.5531 -26.5739 34.4817C-26.7019 34.446 -26.8019 34.4225 -26.8767 34.4084C-26.957 34.3932 -26.9821 34.394 -26.9689 34.394C-27.4341 34.394 -27.6953 34.4744 -27.8275 34.5469C-27.9316 34.6041 -27.9735 34.6625 -28.0009 34.7526C-28.0872 35.037 -28.0281 35.7172 -27.4076 36.9105C-26.2163 39.2015 -23.4295 42.4916 -19.2377 46.1964C-16.189 48.8519 -14.0537 50.9753 -12.903 52.5445C-12.3471 53.3025 -11.9116 54.0732 -11.8315 54.7934C-11.7878 55.1867 -11.8445 55.6219 -12.1039 56.011C-12.3551 56.3878 -12.7205 56.6071 -13.0797 56.7301C-13.95 57.0527 -17.2899 57.9968 -21.9485 59.2343C-26.6695 60.4883 -32.8146 62.0614 -39.3038 63.6346C-51.4113 66.5876 -58.5672 68.6765 -62.2334 70.462C-63.14 70.9035 -63.792 71.3075 -64.2395 71.6751C-64.6901 72.0451 -64.8811 72.3353 -64.9548 72.5367C-65.0571 72.8166 -65.0375 73.2715 -64.174 74.135C-64.1759 74.1332 -64.1769 74.1322 -64.1768 74.1321C-64.1758 74.1308 -64.074 74.2092 -63.7348 74.2953C-63.3877 74.3835 -62.8923 74.4554 -62.2213 74.4979C-60.8819 74.5827 -58.9695 74.5433 -56.4074 74.3603C-51.2907 73.9949 -43.7098 73.0665 -33.2063 71.4959L-33.1998 71.495C-24.9391 70.3149 -17.313 69.3799 -11.6731 68.8135C-8.85514 68.5304 -6.52192 68.3383 -4.84936 68.2542C-4.01613 68.2123 -3.32727 68.1961 -2.81725 68.2115C-2.56531 68.2192 -2.32959 68.2351 -2.13089 68.2663C-2.03249 68.2817 -1.91693 68.3048 -1.80147 68.343C-1.71048 68.3731 -1.49957 68.4495 -1.3143 68.6348L-1.26405 68.6851L-1.22141 68.7419C-1.01957 69.011 -0.971863 69.3053 -0.958817 69.4882C-0.944633 69.6869 -0.962975 69.8867 -0.99131 70.0672C-1.04822 70.4296 -1.16915 70.8565 -1.32709 71.3174C-1.64588 72.2477 -2.16777 73.4656 -2.83649 74.8774C-4.17773 77.7089 -6.15602 81.4169 -8.42265 85.3589L-8.42728 85.3669L-8.43206 85.3749C-10.7846 89.2958 -12.9418 93.0218 -14.5609 95.843C-15.0692 96.7286 -15.5286 97.5326 -15.9259 98.2279C-16.6644 99.5201 -17.1882 100.437 -17.4123 100.804C-17.411 100.823 -17.4076 100.852 -17.3994 100.891C-17.3696 101.032 -17.2912 101.238 -17.1402 101.5C-16.8401 102.02 -16.3329 102.621 -15.7159 103.151C-15.2098 103.572 -14.8089 103.764 -14.4354 103.824C-14.065 103.883 -13.6 103.831 -12.9316 103.539C-11.5289 102.925 -9.58543 101.42 -6.41927 98.6503C-4.23902 96.6687 -2.05377 94.8802 -0.279594 93.5808C0.606644 92.9318 1.40498 92.3939 2.05749 92.0135C2.38267 91.824 2.68889 91.6634 2.96272 91.5472C3.2054 91.4442 3.53654 91.325 3.87169 91.325C4.46801 91.325 4.86568 91.7359 5.04156 91.9404C5.26495 92.2002 5.46969 92.536 5.65795 92.8975C6.03934 93.6299 6.44514 94.6491 6.85643 95.858C7.68282 98.2871 8.57619 101.617 9.36715 105.275L9.36903 105.284L9.37075 105.292C11.042 113.747 12.4485 119.19 13.9425 122.51C14.687 124.164 15.4176 125.208 16.1429 125.834C16.8376 126.435 17.5616 126.684 18.408 126.684C19.5191 126.684 20.2722 126.378 20.8526 125.718C21.4814 125.004 22.0116 123.759 22.3566 121.653C23.0467 117.442 22.9121 110.39 22.1249 99.0732L22.1248 99.0727C21.731 93.3622 21.533 88.2276 21.5577 84.51C21.5701 82.6571 21.6378 81.1257 21.7708 80.0425C21.8362 79.5101 21.9236 79.0298 22.0504 78.6603C22.1121 78.4807 22.2054 78.259 22.3575 78.0639C22.5106 77.8675 22.8276 77.5744 23.3189 77.5744C23.6042 77.5744 23.9673 77.6679 24.2728 77.7554C24.6249 77.8562 25.0665 78.0005 25.5795 78.1799C26.6077 78.5393 27.9662 79.0544 29.5551 79.6825C32.7353 80.9398 36.8706 82.6629 41.1982 84.5317L41.202 84.5333C49.763 88.2726 55.3061 90.334 58.6845 90.9483C60.4016 91.2605 61.3391 91.1531 61.8114 90.9123C62.1419 90.7438 62.392 90.432 62.392 89.5749C62.392 88.7467 62.2314 88.0049 61.7868 87.1903C61.3288 86.3511 60.5497 85.3985 59.2501 84.1943C56.6388 81.7747 52.1407 78.5292 44.5676 73.3163C40.9212 70.9508 37.6161 68.6324 35.2159 66.8261C34.0165 65.9234 33.0314 65.1399 32.3397 64.5375C31.9965 64.2385 31.7071 63.9683 31.4962 63.7408C31.3925 63.6289 31.287 63.5053 31.2011 63.3779C31.158 63.3141 31.1066 63.23 31.0632 63.1308C31.0241 63.0414 30.9621 62.8749 30.9621 62.6631C30.9621 62.3031 31.1421 62.0588 31.2161 61.968C31.3065 61.8572 31.4051 61.7758 31.4747 61.7232C31.6177 61.6151 31.7893 61.517 31.9555 61.4307C32.2977 61.253 32.7731 61.0459 33.3468 60.8167C34.5025 60.355 36.1563 59.7649 38.1757 59.0876C42.2195 57.7315 47.7826 56.0085 53.8806 54.2381L53.8824 54.2376C64.7784 51.0965 72.4293 48.51 77.3436 46.2829C79.8058 45.167 81.5232 44.1666 82.6102 43.2678C83.7149 42.3543 83.9976 41.6907 84 41.2571C83.9903 41.2428 83.9557 41.1986 83.8634 41.1352C83.646 40.9858 83.2358 40.8152 82.5566 40.6746C81.2116 40.396 79.149 40.2995 76.3966 40.4091C70.9163 40.6273 62.9654 41.649 53.1613 43.4137C48.4317 44.3004 43.938 44.9922 40.5423 45.364C38.8479 45.5495 37.4039 45.658 36.3326 45.6676C35.8013 45.6724 35.327 45.6534 34.9464 45.5976C34.7576 45.5698 34.5574 45.5283 34.3713 45.4598C34.2203 45.4042 33.9646 45.2908 33.7615 45.0517C33.5993 44.8704 33.5166 44.6712 33.4717 44.5242C33.4206 44.3569 33.3976 44.1885 33.3873 44.0382C33.3668 43.7388 33.3896 43.3968 33.4349 43.0429C33.5264 42.3278 33.7305 41.4106 34.0187 40.3706C34.597 38.2836 35.5452 35.5914 36.7371 32.8097C38.9352 27.4846 40.2166 23.4266 40.7104 20.6472C40.959 19.2476 40.9936 18.2474 40.8879 17.5991C40.8358 17.2794 40.7574 17.0962 40.696 17.001C40.6448 16.9216 40.6121 16.9103 40.5984 16.9056L40.5978 16.9054C40.526 16.8806 40.1866 16.843 39.4101 17.2851C38.6787 17.7015 37.7464 18.4388 36.6194 19.5464C34.3735 21.7536 31.4942 25.2907 28.0748 30.2238C25.5023 34.0819 22.9201 37.4115 20.866 39.666C19.8448 40.7868 18.9221 41.6775 18.1757 42.2322C17.8129 42.5018 17.4227 42.7449 17.0385 42.8668C16.6854 42.9789 15.9912 43.0759 15.5006 42.5068C15.2765 42.264 15.1058 41.9185 14.9792 41.6373C14.8244 41.2933 14.6571 40.858 14.4808 40.3541C14.1271 39.3436 13.7155 37.995 13.2711 36.4149C12.3812 33.2511 11.3459 29.1087 10.3611 24.776L10.3611 24.776L10.3582 24.7625C8.39312 15.5267 6.78833 9.47205 5.23219 5.73732C4.45342 3.86827 3.71893 2.66159 3.01858 1.93261C2.34667 1.23322 1.73602 0.999802 1.12158 0.999802C1.12078 0.999802 1.12035 0.999481 1.11994 0.999168C1.11839 0.997993 1.11707 0.996994 1.09618 1.01478C1.04744 1.05628 0.939827 1.17733 0.808891 1.47436C0.541656 2.08059 0.296089 3.13875 0.101723 4.85159C-0.283783 8.24891 -0.432098 13.8411 -0.432098 22.59V45.1802Z" stroke="black" stroke-width="2"/>
</g>
<defs>
<filter id="filter0_d_792_22329" x="-66" y="0" width="151" height="135.448" filterUnits="userSpaceOnUse" color-interpolation-filters="sRGB">
<feFlood flood-opacity="0" result="BackgroundImageFix"/>
<feColorMatrix in="SourceAlpha" type="matrix" values="0 0 0 0 0 0 0 0 0 0 0 0 0 0 0 0 0 0 127 0" result="hardAlpha"/>
<feOffset dy="7.76457"/>
<feComposite in2="hardAlpha" operator="out"/>
<feColorMatrix type="matrix" values="0 0 0 0 0.745098 0 0 0 0 0.74902 0 0 0 0 0.705882 0 0 0 1 0"/>
<feBlend mode="normal" in2="BackgroundImageFix" result="effect1_dropShadow_792_22329"/>
<feBlend mode="normal" in="SourceGraphic" in2="effect1_dropShadow_792_22329" result="shape"/>
</filter>
</defs>
</svg>
